{"glyphs":{"0":{"ha":993,"x_min":86,"x_max":907,"o":"m 907 488 q 878 681 907 590 q 797 841 850 772 q 667 949 743 910 q 499 989 592 989 q 328 949 404 989 q 198 840 251 908 q 115 679 144 771 q 86 485 86 588 q 115 291 86 382 q 197 131 143 200 q 326 23 250 63 q 496 -17 401 -17 q 665 24 589 -17 q 795 133 742 64 q 878 293 849 201 q 907 488 907 385 m 793 485 q 773 331 793 404 q 715 203 753 258 q 622 116 676 149 q 499 83 567 83 q 375 116 431 83 q 281 204 319 149 q 221 333 242 260 q 200 488 200 407 q 221 641 200 568 q 280 769 242 714 q 373 856 318 824 q 496 889 428 889 q 619 856 564 889 q 713 767 674 822 q 772 638 751 711 q 793 485 793 565 z "},"1":{"ha":497,"x_min":39,"x_max":357,"o":"m 39 897 l 65 808 l 249 865 l 249 0 l 357 0 l 357 979 l 276 979 l 39 897 z "},"2":{"ha":832,"x_min":67,"x_max":746,"o":"m 426 888 q 501 874 465 888 q 564 837 538 861 q 606 778 590 813 q 622 701 622 744 q 612 631 622 665 q 577 562 601 597 q 514 486 553 526 q 419 396 475 446 l 67 85 l 67 0 l 746 0 l 746 100 l 231 100 l 490 331 q 600 433 554 386 q 676 523 646 479 q 722 611 707 567 q 736 710 736 656 q 714 820 736 769 q 651 908 692 871 q 556 965 611 944 q 435 986 501 986 q 320 972 371 986 q 228 932 269 958 q 153 867 188 906 q 85 779 118 828 l 165 721 q 283 845 224 803 q 426 888 343 888 z "},"3":{"ha":851,"x_min":69,"x_max":757,"o":"m 596 874 l 289 528 l 311 463 l 374 463 q 570 414 494 463 q 646 274 646 365 q 629 195 646 231 q 584 135 613 160 q 517 97 556 110 q 433 83 478 83 q 274 121 343 83 q 149 228 206 158 l 69 157 q 219 31 129 79 q 432 -17 310 -17 q 559 5 500 -17 q 662 65 618 26 q 731 158 706 104 q 757 278 757 213 q 731 394 757 344 q 660 478 704 444 q 558 529 617 511 q 436 553 500 547 l 742 892 l 742 972 l 121 972 l 121 874 l 596 874 z "},"4":{"ha":932,"x_min":60,"x_max":857,"o":"m 610 979 l 60 310 l 88 231 l 600 231 l 600 0 l 706 0 l 706 231 l 857 231 l 857 322 l 706 322 l 706 979 l 610 979 m 600 322 l 192 322 l 600 824 l 600 322 z "},"5":{"ha":850,"x_min":74,"x_max":768,"o":"m 138 499 l 211 450 q 303 490 254 474 q 415 506 353 506 q 514 490 469 506 q 590 448 558 475 q 640 383 622 421 q 657 300 657 346 q 640 213 657 253 q 592 144 622 174 q 517 99 561 115 q 422 83 474 83 q 278 119 347 83 q 146 217 210 154 l 74 138 q 228 27 140 71 q 421 -17 317 -17 q 561 6 497 -17 q 671 72 625 29 q 742 173 717 114 q 768 304 768 232 q 742 429 768 374 q 671 523 717 485 q 564 582 625 561 q 432 603 503 603 q 327 591 371 603 q 240 560 283 579 l 261 871 l 725 871 l 725 972 l 165 972 l 138 499 z "},"6":{"ha":899,"x_min":85,"x_max":811,"o":"m 776 878 q 644 960 713 931 q 489 989 576 989 q 318 948 393 989 q 191 835 243 907 q 112 667 139 764 q 85 460 85 571 q 93 327 85 385 q 117 225 101 269 q 155 146 132 181 q 207 82 178 111 q 317 10 253 36 q 463 -17 382 -17 q 600 8 536 -17 q 710 75 664 32 q 784 178 757 118 q 811 308 811 238 q 784 432 811 376 q 711 527 757 488 q 604 588 665 567 q 475 608 543 608 q 380 596 422 608 q 303 563 338 583 q 244 516 269 543 q 199 460 218 489 q 218 633 199 554 q 274 768 238 711 q 364 857 311 825 q 483 889 417 889 q 604 864 550 889 q 713 793 658 839 l 776 878 m 699 304 q 682 216 699 257 q 635 145 665 175 q 561 98 604 115 q 464 81 518 81 q 365 97 410 81 q 287 143 319 114 q 236 213 254 172 q 218 300 218 253 q 235 380 218 342 q 285 448 253 418 q 362 496 317 478 q 461 514 407 514 q 558 498 514 514 q 633 454 601 482 q 681 388 664 426 q 699 304 699 350 z "},"7":{"ha":828,"x_min":94,"x_max":754,"o":"m 94 872 l 629 872 l 190 0 l 313 0 l 754 890 l 754 972 l 94 972 l 94 872 z "},"8":{"ha":875,"x_min":72,"x_max":803,"o":"m 803 264 q 747 411 803 351 q 603 503 690 471 q 667 540 636 518 q 720 588 697 561 q 756 650 743 615 q 769 728 769 685 q 742 832 769 785 q 670 914 715 879 q 565 967 625 949 q 438 986 504 986 q 310 967 371 986 q 205 914 250 949 q 133 832 160 879 q 106 728 106 785 q 119 650 106 685 q 155 588 132 615 q 208 540 178 561 q 272 503 239 518 q 128 410 185 471 q 72 263 72 350 q 100 150 72 201 q 177 63 128 99 q 293 6 226 26 q 438 -14 360 -14 q 582 6 515 -14 q 698 63 649 26 q 775 150 747 99 q 803 264 803 201 m 660 721 q 642 648 660 681 q 595 592 625 615 q 524 555 565 568 q 438 542 483 542 q 351 555 392 542 q 280 592 310 568 q 233 648 250 615 q 215 721 215 681 q 232 789 215 758 q 278 842 249 819 q 349 878 308 865 q 438 890 390 890 q 526 878 485 890 q 597 842 567 865 q 643 788 626 819 q 660 721 660 757 m 692 265 q 674 194 692 228 q 624 136 657 161 q 544 97 592 111 q 438 82 497 82 q 331 97 378 82 q 251 136 283 111 q 201 194 218 161 q 183 265 183 228 q 203 341 183 307 q 257 399 222 375 q 338 438 292 424 q 438 451 385 451 q 537 438 490 451 q 617 399 583 424 q 672 341 651 375 q 692 265 692 307 z "},"9":{"ha":899,"x_min":88,"x_max":814,"o":"m 814 511 q 806 642 814 585 q 782 745 797 700 q 744 825 767 790 q 693 889 722 860 q 583 963 646 936 q 438 989 521 989 q 295 963 360 989 q 185 892 231 938 q 113 787 139 847 q 88 657 88 726 q 113 535 88 590 q 182 439 138 479 q 289 376 226 399 q 426 354 351 354 q 594 400 528 354 q 701 510 661 446 q 683 338 703 417 q 624 203 663 260 q 532 115 586 147 q 413 83 478 83 q 290 109 347 83 q 174 188 233 135 l 110 103 q 243 17 172 51 q 410 -17 314 -17 q 574 22 500 -17 q 702 131 649 61 q 785 298 756 201 q 814 511 814 394 m 681 669 q 664 588 681 628 q 616 517 647 547 q 540 467 585 486 q 439 449 494 449 q 342 465 386 449 q 266 509 297 481 q 217 576 235 538 q 200 663 200 615 q 216 750 200 708 q 262 823 232 792 q 335 873 292 854 q 433 892 379 892 q 533 874 488 892 q 612 827 579 857 q 663 757 644 797 q 681 669 681 717 z "}," ":{"ha":417,"x_min":0,"x_max":0,"o":""},"!":{"ha":376,"x_min":125,"x_max":253,"o":"m 126 972 l 126 893 l 158 275 l 218 275 l 251 893 l 251 972 l 126 972 m 253 0 l 253 146 l 125 146 l 125 0 l 253 0 z "},"\"":{"ha":611,"x_min":90,"x_max":532,"o":"m 361 594 l 419 594 l 532 965 l 532 972 l 404 972 l 361 594 m 90 594 l 149 594 l 261 965 l 261 972 l 132 972 l 90 594 z "},"#":{"ha":972,"x_min":63,"x_max":908,"o":"m 908 636 l 908 732 l 758 732 l 799 972 l 701 972 l 660 732 l 396 732 l 436 972 l 339 972 l 297 732 l 117 732 l 117 636 l 282 636 l 231 342 l 63 342 l 63 246 l 214 246 l 172 0 l 269 0 l 313 246 l 576 246 l 535 0 l 632 0 l 675 246 l 854 246 l 854 342 l 690 342 l 742 636 l 908 636 m 643 636 l 593 342 l 329 342 l 379 636 l 643 636 z "},"$":{"ha":883,"x_min":78,"x_max":790,"o":"m 790 263 q 719 433 790 368 q 490 533 649 497 l 490 875 q 598 842 546 865 q 700 775 650 818 l 760 858 q 636 934 699 906 q 494 969 574 963 l 494 1053 l 406 1053 l 406 972 q 288 949 342 969 q 196 894 235 928 q 135 815 157 860 q 114 715 114 769 q 185 543 114 606 q 410 444 256 481 l 410 97 q 267 139 331 106 q 140 229 203 172 l 78 146 q 232 47 151 83 q 406 3 313 11 l 406 -136 l 494 -136 l 494 0 q 615 24 560 4 q 708 79 669 44 q 769 160 747 114 q 790 263 790 206 m 410 553 q 316 584 353 567 q 258 622 279 601 q 229 668 238 643 q 221 722 221 693 q 234 782 221 754 q 272 831 247 810 q 331 865 296 851 q 410 879 365 878 l 410 553 m 683 256 q 631 142 683 186 q 490 93 579 97 l 490 425 q 585 394 549 411 q 644 357 622 378 q 675 311 667 336 q 683 256 683 286 z "},"%":{"ha":1158,"x_min":72,"x_max":1085,"o":"m 513 736 q 497 831 513 786 q 452 909 481 875 q 383 963 424 943 q 294 983 343 983 q 203 963 244 983 q 133 908 163 943 q 88 828 104 874 q 72 733 72 783 q 88 639 72 683 q 133 560 104 594 q 201 506 161 526 q 292 486 242 486 q 382 506 342 486 q 451 561 422 526 q 497 641 481 596 q 513 736 513 686 m 985 972 l 886 972 l 172 0 l 272 0 l 985 972 m 1085 239 q 1069 333 1085 289 q 1026 412 1054 378 q 957 466 997 446 q 867 486 917 486 q 776 466 817 486 q 707 411 736 446 q 662 331 678 376 q 646 236 646 286 q 662 142 646 186 q 706 63 678 97 q 775 9 735 29 q 864 -11 815 -11 q 955 9 914 -11 q 1024 64 996 29 q 1069 144 1053 99 q 1085 239 1085 189 m 421 733 q 412 667 421 697 q 386 613 403 636 q 346 577 369 590 q 294 564 322 564 q 244 577 267 564 q 203 613 221 590 q 175 667 185 636 q 165 736 165 699 q 174 802 165 771 q 200 856 183 833 q 240 892 217 879 q 292 906 263 906 q 342 892 318 906 q 383 856 365 879 q 410 802 400 833 q 421 733 421 771 m 993 236 q 984 169 993 200 q 958 116 975 139 q 919 80 942 93 q 867 67 896 67 q 816 80 839 67 q 775 116 793 93 q 747 170 757 139 q 738 239 738 201 q 747 305 738 274 q 772 359 756 336 q 813 395 789 382 q 864 408 836 408 q 914 395 890 408 q 956 359 938 382 q 983 305 974 336 q 993 236 993 274 z "},"&":{"ha":967,"x_min":63,"x_max":922,"o":"m 922 44 l 753 218 q 827 332 793 271 q 893 463 861 393 l 803 504 q 747 389 776 443 q 686 288 718 335 l 464 514 q 632 612 571 551 q 693 768 693 672 q 675 854 693 814 q 626 924 657 894 q 551 972 594 954 q 457 989 508 989 q 351 971 399 989 q 271 922 304 953 q 219 848 238 890 q 200 757 200 806 q 224 649 200 699 q 297 542 247 600 q 124 428 185 497 q 63 260 63 358 q 85 148 63 199 q 149 61 108 97 q 247 6 190 25 q 368 -14 303 -14 q 542 26 464 -14 q 686 138 619 65 l 839 -19 l 922 44 m 590 763 q 543 653 590 697 q 403 576 496 608 q 356 630 375 606 q 326 675 338 654 q 310 715 315 696 q 306 757 306 735 q 346 858 306 818 q 453 899 386 899 q 551 860 513 899 q 590 763 590 822 m 619 206 q 506 113 567 147 q 376 79 446 79 q 294 93 332 79 q 230 132 257 107 q 188 190 203 157 q 174 264 174 224 q 218 382 174 326 q 360 474 263 438 l 619 206 z "},"'":{"ha":340,"x_min":90,"x_max":263,"o":"m 90 594 l 150 594 l 263 965 l 263 972 l 132 972 l 90 594 z "},"(":{"ha":603,"x_min":94,"x_max":525,"o":"m 525 922 l 479 993 q 194 740 293 889 q 94 399 94 592 q 194 57 94 206 q 479 -196 293 -92 l 525 -125 q 284 103 365 -24 q 203 399 203 231 q 284 694 203 567 q 525 922 365 821 z "},")":{"ha":603,"x_min":78,"x_max":508,"o":"m 78 922 q 319 694 238 821 q 400 399 400 567 q 319 103 400 231 q 78 -125 238 -24 l 124 -196 q 409 57 310 -92 q 508 399 508 206 q 409 740 508 592 q 124 993 310 889 l 78 922 z "},"*":{"ha":597,"x_min":96,"x_max":501,"o":"m 501 689 l 340 763 l 501 838 l 464 901 l 321 801 l 335 975 l 263 975 l 276 801 l 133 901 l 96 838 l 257 763 l 96 689 l 133 624 l 276 725 l 263 551 l 335 551 l 321 725 l 464 624 l 501 689 z "},"+":{"ha":889,"x_min":104,"x_max":785,"o":"m 393 539 l 104 539 l 104 439 l 393 439 l 393 153 l 496 153 l 496 439 l 785 439 l 785 539 l 496 539 l 496 825 l 393 825 l 393 539 z "},",":{"ha":340,"x_min":64,"x_max":235,"o":"m 64 -121 l 81 -169 q 197 -108 160 -151 q 235 21 235 -64 l 235 146 l 107 146 l 107 0 l 157 0 q 139 -73 161 -44 q 64 -121 117 -101 z "},"-":{"ha":567,"x_min":90,"x_max":476,"o":"m 476 361 l 476 474 l 90 474 l 90 361 l 476 361 z "},".":{"ha":340,"x_min":107,"x_max":235,"o":"m 235 0 l 235 146 l 107 146 l 107 0 l 235 0 z "},"/":{"ha":706,"x_min":-29,"x_max":714,"o":"m 615 1108 l -29 -178 l 69 -178 l 714 1108 l 615 1108 z "},":":{"ha":354,"x_min":114,"x_max":242,"o":"m 242 572 l 242 718 l 114 718 l 114 572 l 242 572 m 242 0 l 242 146 l 114 146 l 114 0 l 242 0 z "},";":{"ha":354,"x_min":71,"x_max":242,"o":"m 242 572 l 242 718 l 114 718 l 114 572 l 242 572 m 71 -121 l 88 -169 q 204 -108 167 -151 q 242 21 242 -64 l 242 146 l 114 146 l 114 0 l 164 0 q 146 -73 168 -44 q 71 -121 124 -101 z "},"<":{"ha":889,"x_min":100,"x_max":751,"o":"m 100 535 l 100 443 l 751 119 l 751 228 l 217 490 l 751 751 l 751 858 l 100 535 z "},"=":{"ha":889,"x_min":125,"x_max":764,"o":"m 125 703 l 125 600 l 764 600 l 764 703 l 125 703 m 125 378 l 125 275 l 764 275 l 764 378 l 125 378 z "},">":{"ha":889,"x_min":138,"x_max":789,"o":"m 789 443 l 789 535 l 138 858 l 138 750 l 672 488 l 138 226 l 138 119 l 789 443 z "},"?":{"ha":746,"x_min":42,"x_max":679,"o":"m 292 507 l 285 500 l 306 275 l 376 275 l 390 425 q 502 454 450 433 q 594 510 554 475 q 656 594 633 544 q 679 708 679 643 q 657 819 679 768 q 594 906 635 869 q 496 964 553 943 q 368 985 439 985 q 179 940 257 985 q 42 824 101 896 l 113 756 q 226 852 165 818 q 365 886 288 886 q 450 872 413 886 q 514 833 488 858 q 554 775 540 808 q 568 704 568 742 q 498 563 568 615 q 292 507 428 510 m 404 0 l 404 146 l 276 146 l 276 0 l 404 0 z "},"@":{"ha":1361,"x_min":74,"x_max":1288,"o":"m 1288 439 q 1241 647 1288 547 q 1113 823 1194 747 q 920 944 1031 899 q 682 989 810 989 q 443 940 554 989 q 250 809 332 892 q 121 616 168 726 q 74 381 74 506 q 120 146 74 256 q 250 -47 167 36 q 447 -177 333 -129 q 693 -225 560 -225 q 891 -197 801 -225 q 1061 -121 981 -169 l 1039 -83 q 878 -154 958 -131 q 693 -178 797 -178 q 463 -134 568 -178 q 283 -15 358 -90 q 166 163 208 61 q 124 381 124 264 q 166 598 124 496 q 283 776 208 700 q 460 897 358 853 q 682 942 563 942 q 903 899 801 942 q 1078 786 1004 857 q 1195 625 1153 715 q 1238 439 1238 535 q 1221 311 1238 365 q 1177 222 1204 257 q 1115 169 1150 186 q 1043 153 1081 153 q 956 183 986 153 q 925 265 925 213 q 927 299 925 276 q 935 350 929 321 l 990 665 l 897 678 l 879 582 q 849 625 867 604 q 806 662 831 646 q 749 688 781 678 q 676 697 717 697 q 560 671 618 697 q 457 598 503 644 q 383 488 411 551 q 356 351 356 425 q 375 248 356 294 q 428 168 394 201 q 508 117 463 135 q 604 99 553 99 q 738 133 682 99 q 833 215 793 167 q 902 131 853 163 q 1028 99 951 99 q 1122 119 1075 99 q 1206 181 1169 139 q 1265 286 1242 222 q 1288 439 1288 350 m 853 435 q 834 341 853 386 q 784 261 815 296 q 711 206 753 226 q 625 185 669 185 q 503 230 550 185 q 456 358 456 275 q 475 458 456 413 q 526 538 494 504 q 598 592 557 572 q 683 611 639 611 q 751 598 719 611 q 805 561 782 585 q 840 505 828 538 q 853 435 853 472 z "},"A":{"ha":1097,"x_min":54,"x_max":1043,"o":"m 600 979 l 497 979 l 54 0 l 167 0 l 282 257 l 811 257 l 925 0 l 1043 0 l 600 979 m 768 356 l 325 356 l 547 851 l 768 356 z "},"B":{"ha":1003,"x_min":138,"x_max":922,"o":"m 551 972 l 138 972 l 138 0 l 569 0 q 714 18 649 0 q 826 70 779 36 q 897 154 872 104 q 922 267 922 204 q 906 356 922 317 q 861 422 889 394 q 795 470 833 450 q 714 503 757 490 q 770 534 743 515 q 819 581 797 553 q 855 644 842 608 q 868 729 868 681 q 846 830 868 785 q 782 906 824 875 q 682 955 740 938 q 551 972 624 972 m 533 539 l 246 539 l 246 874 l 542 874 q 701 831 646 874 q 757 714 757 788 q 694 583 757 628 q 533 539 632 539 m 572 99 l 246 99 l 246 442 l 553 442 q 746 398 681 442 q 811 274 811 354 q 747 144 811 190 q 572 99 683 99 z "},"C":{"ha":1025,"x_min":94,"x_max":971,"o":"m 971 154 l 899 225 q 757 122 829 158 q 585 85 685 85 q 435 116 504 85 q 316 201 367 147 q 237 329 265 256 q 208 488 208 403 q 237 645 208 572 q 316 772 265 718 q 435 857 367 826 q 585 888 504 888 q 756 850 685 888 q 890 754 828 813 l 965 835 q 890 898 929 869 q 806 947 851 926 q 706 978 760 967 q 586 989 653 989 q 389 949 479 989 q 233 841 299 910 q 131 681 168 772 q 94 485 94 589 q 131 288 94 379 q 233 128 168 196 q 388 22 299 61 q 582 -17 476 -17 q 703 -4 649 -17 q 804 31 757 8 q 892 84 851 53 q 971 154 933 115 z "},"D":{"ha":1086,"x_min":138,"x_max":992,"o":"m 992 488 q 954 679 992 590 q 848 833 917 768 q 684 935 779 899 q 475 972 589 972 l 138 972 l 138 0 l 475 0 q 684 38 589 0 q 848 140 779 75 q 954 295 917 206 q 992 488 992 385 m 878 485 q 849 333 878 403 q 769 212 821 264 q 642 131 717 160 q 475 101 567 101 l 247 101 l 247 871 l 475 871 q 642 841 567 871 q 769 759 717 811 q 849 636 821 707 q 878 485 878 565 z "},"E":{"ha":931,"x_min":138,"x_max":847,"o":"m 840 972 l 138 972 l 138 0 l 847 0 l 847 100 l 247 100 l 247 440 l 778 440 l 778 540 l 247 540 l 247 872 l 840 872 l 840 972 z "},"F":{"ha":911,"x_min":138,"x_max":836,"o":"m 836 972 l 138 972 l 138 0 l 247 0 l 247 424 l 774 424 l 774 524 l 247 524 l 247 871 l 836 871 l 836 972 z "},"G":{"ha":1089,"x_min":94,"x_max":979,"o":"m 979 132 l 979 519 l 578 519 l 578 421 l 874 421 l 874 179 q 750 110 824 139 q 593 82 676 82 q 433 113 504 82 q 313 197 363 143 q 235 326 263 251 q 208 488 208 400 q 236 642 208 569 q 313 769 264 715 q 429 856 361 824 q 578 888 497 888 q 672 879 629 888 q 749 856 714 871 q 815 822 785 842 q 874 776 846 801 l 944 860 q 870 915 908 890 q 788 956 832 939 q 694 981 744 972 q 582 989 643 989 q 383 948 472 989 q 229 838 293 907 q 130 676 165 768 q 94 485 94 585 q 128 289 94 381 q 227 129 163 197 q 383 22 292 61 q 589 -17 474 -17 q 812 27 713 -17 q 979 132 911 71 z "},"H":{"ha":1056,"x_min":138,"x_max":918,"o":"m 808 438 l 808 0 l 918 0 l 918 972 l 808 972 l 808 540 l 247 540 l 247 972 l 138 972 l 138 0 l 247 0 l 247 438 l 808 438 z "},"I":{"ha":404,"x_min":147,"x_max":257,"o":"m 147 972 l 147 0 l 257 0 l 257 972 l 147 972 z "},"J":{"ha":768,"x_min":43,"x_max":646,"o":"m 646 322 l 646 972 l 535 972 l 535 321 q 481 147 535 206 q 344 88 426 88 q 217 123 268 88 q 122 226 167 158 l 43 158 q 161 35 89 83 q 343 -14 233 -14 q 464 7 408 -14 q 560 70 519 28 q 623 176 600 113 q 646 322 646 239 z "},"K":{"ha":999,"x_min":138,"x_max":965,"o":"m 531 547 l 947 972 l 806 972 l 247 392 l 247 972 l 138 972 l 138 0 l 247 0 l 247 261 l 454 471 l 828 0 l 965 0 l 531 547 z "},"L":{"ha":860,"x_min":138,"x_max":794,"o":"m 138 0 l 794 0 l 794 101 l 247 101 l 247 972 l 138 972 l 138 0 z "},"M":{"ha":1206,"x_min":138,"x_max":1068,"o":"m 958 788 l 958 0 l 1068 0 l 1068 972 l 957 972 l 603 442 l 249 972 l 138 972 l 138 0 l 244 0 l 244 786 l 599 267 l 604 267 l 958 788 z "},"N":{"ha":1097,"x_min":138,"x_max":960,"o":"m 853 193 l 240 972 l 138 972 l 138 0 l 244 0 l 244 797 l 872 0 l 960 0 l 960 972 l 853 972 l 853 193 z "},"O":{"ha":1181,"x_min":94,"x_max":1086,"o":"m 1086 488 q 1051 680 1086 589 q 950 840 1015 771 q 794 949 885 908 q 592 989 703 989 q 389 948 481 989 q 232 838 297 907 q 131 677 167 768 q 94 485 94 586 q 130 292 94 383 q 231 133 165 201 q 387 24 296 64 q 589 -17 478 -17 q 792 24 700 -17 q 949 135 883 65 q 1050 295 1014 204 q 1086 488 1086 386 m 972 485 q 944 328 972 401 q 865 201 915 256 q 745 116 815 147 q 592 85 675 85 q 438 117 508 85 q 317 203 368 149 q 237 331 265 257 q 208 488 208 404 q 237 644 208 571 q 315 771 265 717 q 435 856 365 825 q 589 888 506 888 q 742 856 672 888 q 864 769 813 824 q 944 642 915 715 q 972 485 972 568 z "},"P":{"ha":928,"x_min":138,"x_max":865,"o":"m 865 663 q 840 792 865 735 q 766 890 814 850 q 651 951 718 929 q 501 972 583 972 l 138 972 l 138 0 l 247 0 l 247 343 l 483 343 q 631 363 561 343 q 752 424 700 383 q 835 524 804 464 q 865 663 865 583 m 754 658 q 735 570 754 610 q 681 502 717 531 q 597 458 646 474 q 488 443 547 443 l 247 443 l 247 871 l 493 871 q 683 817 611 871 q 754 658 754 764 z "},"Q":{"ha":1181,"x_min":94,"x_max":1099,"o":"m 969 160 q 1056 311 1026 226 q 1086 488 1086 396 q 1051 680 1086 589 q 950 840 1015 771 q 794 949 885 908 q 592 989 703 989 q 389 948 481 989 q 232 838 297 907 q 131 677 167 768 q 94 485 94 586 q 130 292 94 383 q 231 133 165 201 q 387 24 296 64 q 589 -17 478 -17 q 757 11 681 -17 q 896 88 833 39 l 1024 -29 l 1099 53 l 969 160 m 815 158 q 714 104 771 124 q 592 85 657 85 q 438 117 508 85 q 317 203 368 149 q 237 331 265 257 q 208 488 208 404 q 237 644 208 571 q 315 771 265 717 q 435 856 365 825 q 589 888 506 888 q 742 856 672 888 q 864 769 813 824 q 944 642 915 715 q 972 485 972 568 q 950 348 972 413 q 888 232 928 283 l 708 394 l 635 313 l 815 158 z "},"R":{"ha":1004,"x_min":138,"x_max":942,"o":"m 942 0 l 643 397 q 749 431 700 407 q 833 490 797 454 q 888 573 868 525 q 907 682 907 621 q 882 801 907 747 q 811 892 857 854 q 701 951 765 931 q 556 972 636 972 l 138 972 l 138 0 l 247 0 l 247 378 l 525 378 l 807 0 l 942 0 m 796 678 q 777 593 796 631 q 725 530 758 556 q 646 490 692 504 q 546 476 600 476 l 247 476 l 247 871 l 547 871 q 731 820 665 871 q 796 678 796 769 z "},"S":{"ha":889,"x_min":74,"x_max":803,"o":"m 222 729 q 237 792 222 763 q 278 842 251 821 q 344 875 306 863 q 429 888 382 888 q 573 863 504 888 q 710 782 642 838 l 774 867 q 619 956 699 926 q 432 986 539 986 q 304 966 363 986 q 203 910 246 946 q 136 826 160 875 q 113 719 113 778 q 132 614 113 658 q 192 536 151 569 q 294 479 232 503 q 439 438 356 456 q 565 403 515 421 q 642 363 614 385 q 681 313 669 340 q 692 251 692 286 q 633 131 692 176 q 475 85 574 85 q 296 119 374 85 q 142 222 218 153 l 74 142 q 258 24 161 63 q 471 -14 354 -14 q 604 6 543 -14 q 709 61 665 25 q 778 149 753 97 q 803 263 803 200 q 726 439 803 375 q 486 539 649 503 q 354 574 406 556 q 274 616 303 593 q 233 667 244 639 q 222 729 222 694 z "},"T":{"ha":900,"x_min":68,"x_max":832,"o":"m 506 871 l 832 871 l 832 972 l 68 972 l 68 871 l 394 871 l 394 0 l 506 0 l 506 871 z "},"U":{"ha":1054,"x_min":122,"x_max":932,"o":"m 932 972 l 822 972 l 822 407 q 743 167 822 247 q 529 86 664 86 q 310 171 389 86 q 232 414 232 256 l 232 972 l 122 972 l 122 407 q 151 225 122 304 q 234 92 181 146 q 362 12 288 39 q 526 -15 436 -15 q 692 12 618 -15 q 820 93 767 39 q 903 228 874 147 q 932 415 932 308 l 932 972 z "},"V":{"ha":1042,"x_min":54,"x_max":988,"o":"m 522 135 l 176 972 l 54 972 l 472 -7 l 569 -7 l 988 972 l 869 972 l 522 135 z "},"W":{"ha":1538,"x_min":63,"x_max":1476,"o":"m 460 163 l 182 972 l 63 972 l 410 -7 l 501 -7 l 769 782 l 1036 -7 l 1129 -7 l 1476 972 l 1361 972 l 1083 163 l 817 975 l 726 975 l 460 163 z "},"X":{"ha":1007,"x_min":64,"x_max":943,"o":"m 943 0 l 569 497 l 929 972 l 801 972 l 506 575 l 207 972 l 78 972 l 438 496 l 64 0 l 190 0 l 501 418 l 813 0 l 943 0 z "},"Y":{"ha":994,"x_min":38,"x_max":957,"o":"m 553 386 l 957 972 l 829 972 l 499 486 l 171 972 l 38 972 l 442 385 l 442 0 l 553 0 l 553 386 z "},"Z":{"ha":963,"x_min":93,"x_max":872,"o":"m 722 874 l 93 74 l 93 0 l 872 0 l 872 99 l 242 99 l 872 899 l 872 972 l 114 972 l 114 874 l 722 874 z "},"[":{"ha":610,"x_min":131,"x_max":528,"o":"m 528 972 l 131 972 l 131 -181 l 528 -181 l 528 -97 l 232 -97 l 232 889 l 528 889 l 528 972 z "},"\\":{"ha":706,"x_min":-8,"x_max":735,"o":"m 90 1108 l -8 1108 l 636 -178 l 735 -178 l 90 1108 z "},"]":{"ha":610,"x_min":82,"x_max":479,"o":"m 82 972 l 82 889 l 379 889 l 379 -97 l 82 -97 l 82 -181 l 479 -181 l 479 972 l 82 972 z "},"^":{"ha":694,"x_min":90,"x_max":604,"o":"m 346 899 l 510 685 l 604 685 l 389 975 l 306 975 l 90 685 l 182 685 l 346 899 z "},"_":{"ha":833,"x_min":-3,"x_max":836,"o":"m -3 -135 l -3 -222 l 836 -222 l 836 -135 l -3 -135 z "},"`":{"ha":694,"x_min":200,"x_max":443,"o":"m 357 826 l 443 826 l 311 1028 l 200 976 l 357 826 z "},"a":{"ha":804,"x_min":65,"x_max":696,"o":"m 379 633 q 537 584 481 633 q 593 438 593 535 l 593 413 q 493 435 544 426 q 372 443 442 443 q 248 428 304 443 q 151 383 192 413 q 88 310 110 354 q 65 210 65 267 q 88 111 65 153 q 149 41 111 69 q 235 -1 188 13 q 333 -15 283 -15 q 492 22 429 -15 q 593 108 556 60 l 593 0 l 696 0 l 696 439 q 617 655 696 582 q 390 728 538 728 q 250 712 311 728 q 129 668 189 696 l 161 581 q 263 619 211 604 q 379 633 315 633 m 383 364 q 502 354 450 364 q 594 333 554 344 l 594 264 q 576 185 594 221 q 524 124 557 150 q 448 84 492 99 q 354 69 404 69 q 285 79 318 69 q 228 108 253 89 q 188 153 203 126 q 174 214 174 179 q 228 324 174 283 q 383 364 282 364 z "},"b":{"ha":922,"x_min":119,"x_max":844,"o":"m 844 360 q 815 518 844 449 q 738 635 786 588 q 627 708 689 683 q 501 733 565 733 q 410 720 451 733 q 336 685 369 707 q 276 635 303 664 q 226 574 249 606 l 226 1014 l 119 1014 l 119 0 l 226 0 l 226 138 q 274 79 247 107 q 335 31 301 51 q 410 -3 368 10 q 501 -15 451 -15 q 628 10 567 -15 q 738 84 690 36 q 815 201 786 132 q 844 360 844 271 m 735 358 q 715 241 735 293 q 660 153 694 189 q 580 99 626 118 q 482 81 533 81 q 385 101 432 81 q 302 157 339 121 q 244 245 265 193 q 222 360 222 297 q 244 474 222 422 q 302 561 265 525 q 385 617 339 597 q 482 638 432 638 q 579 618 533 638 q 660 562 625 599 q 715 474 694 525 q 735 358 735 422 z "},"c":{"ha":793,"x_min":75,"x_max":736,"o":"m 736 122 l 668 186 q 572 110 625 140 q 449 79 518 79 q 344 101 392 79 q 260 160 296 122 q 205 250 225 199 q 185 360 185 301 q 204 469 185 418 q 258 558 224 519 q 340 617 293 596 q 442 639 388 639 q 566 607 515 639 q 660 531 617 575 l 731 606 q 676 656 706 632 q 613 697 647 679 q 536 724 578 714 q 443 733 494 733 q 297 703 364 733 q 180 622 229 674 q 103 502 131 571 q 75 357 75 433 q 103 213 75 281 q 180 94 131 144 q 297 13 229 43 q 443 -17 364 -17 q 613 22 544 -17 q 736 122 682 61 z "},"d":{"ha":922,"x_min":78,"x_max":803,"o":"m 803 0 l 803 1014 l 696 1014 l 696 581 q 648 639 675 611 q 588 688 621 667 q 513 721 554 708 q 421 733 471 733 q 294 708 356 733 q 185 634 233 682 q 107 517 136 586 q 78 358 78 447 q 107 200 78 269 q 185 83 136 131 q 294 10 233 35 q 421 -15 356 -15 q 512 -3 471 -15 q 586 32 553 10 q 647 83 619 54 q 696 144 674 113 l 696 0 l 803 0 m 700 360 q 678 245 700 297 q 620 157 657 193 q 537 101 583 121 q 440 81 490 81 q 343 100 389 81 q 263 156 297 119 q 208 244 228 193 q 188 360 188 296 q 208 477 188 425 q 262 565 228 529 q 342 619 296 600 q 440 638 388 638 q 537 617 490 638 q 620 561 583 597 q 678 474 657 525 q 700 360 700 422 z "},"e":{"ha":822,"x_min":75,"x_max":754,"o":"m 183 319 l 753 319 q 754 338 754 329 q 754 353 754 346 q 732 501 754 432 q 667 622 710 571 q 561 703 624 674 q 419 733 499 733 q 281 704 344 733 q 172 624 218 675 q 101 505 126 574 q 75 358 75 436 q 103 206 75 275 q 181 87 132 136 q 294 10 229 38 q 433 -17 360 -17 q 606 20 536 -17 q 729 118 675 57 l 663 178 q 565 104 618 132 q 436 76 511 76 q 346 92 389 76 q 268 140 303 108 q 211 216 233 171 q 183 319 189 261 m 183 399 q 208 496 189 451 q 258 573 228 540 q 329 624 289 606 q 417 643 369 643 q 512 623 471 643 q 581 569 553 603 q 626 492 610 536 q 646 399 642 447 l 183 399 z "},"f":{"ha":510,"x_min":61,"x_max":494,"o":"m 265 715 l 265 774 q 390 926 265 926 q 442 922 418 926 q 494 908 465 917 l 494 1001 q 441 1015 468 1011 q 376 1019 414 1019 q 216 958 272 1019 q 160 779 160 897 l 160 717 l 61 717 l 61 624 l 160 624 l 160 0 l 267 0 l 267 624 l 493 624 l 493 715 l 265 715 z "},"g":{"ha":922,"x_min":78,"x_max":803,"o":"m 803 125 l 803 718 l 696 718 l 696 589 q 646 644 674 618 q 584 690 618 671 q 508 722 550 710 q 415 733 465 733 q 290 710 351 733 q 182 642 229 686 q 106 535 135 599 q 78 393 78 472 q 106 251 78 314 q 182 145 135 189 q 290 78 229 101 q 415 56 350 56 q 582 100 514 56 q 697 207 650 144 l 697 122 q 626 -69 697 -4 q 436 -133 556 -133 q 290 -110 358 -133 q 160 -42 222 -86 l 111 -125 q 265 -200 183 -175 q 438 -225 347 -225 q 588 -203 521 -225 q 703 -137 656 -181 q 777 -28 751 -93 q 803 125 803 38 m 700 394 q 678 294 700 339 q 619 217 656 249 q 535 167 582 185 q 436 150 488 150 q 341 167 386 150 q 262 217 296 185 q 208 295 228 250 q 188 396 188 340 q 207 497 188 451 q 260 574 226 542 q 340 622 294 606 q 436 639 385 639 q 535 622 488 639 q 619 572 582 604 q 678 495 656 540 q 700 394 700 450 z "},"h":{"ha":856,"x_min":119,"x_max":747,"o":"m 226 411 q 242 503 226 461 q 288 574 258 544 q 356 620 317 604 q 442 636 396 636 q 589 578 538 636 q 640 419 640 519 l 640 0 l 747 0 l 747 446 q 728 563 747 510 q 674 653 710 615 q 588 713 639 692 q 472 733 538 733 q 321 692 379 733 q 226 593 263 651 l 226 1014 l 119 1014 l 119 0 l 226 0 l 226 411 z "},"i":{"ha":365,"x_min":122,"x_max":244,"o":"m 244 875 l 244 993 l 122 993 l 122 875 l 244 875 m 236 0 l 236 718 l 129 718 l 129 0 l 236 0 z "},"j":{"ha":365,"x_min":-6,"x_max":244,"o":"m 244 875 l 244 993 l 122 993 l 122 875 l 244 875 m 129 718 l 129 -40 q 106 -113 129 -90 q 47 -136 83 -136 q 22 -135 36 -136 q -6 -132 7 -135 l -6 -219 q 27 -225 13 -224 q 61 -226 42 -226 q 190 -182 143 -226 q 236 -42 236 -137 l 236 718 l 129 718 z "},"k":{"ha":790,"x_min":119,"x_max":757,"o":"m 446 410 l 747 718 l 614 718 l 226 314 l 226 1014 l 119 1014 l 119 0 l 226 0 l 226 188 l 372 335 l 629 0 l 757 0 l 446 410 z "},"l":{"ha":365,"x_min":129,"x_max":236,"o":"m 236 0 l 236 1014 l 129 1014 l 129 0 l 236 0 z "},"m":{"ha":1321,"x_min":119,"x_max":1208,"o":"m 689 590 q 603 692 660 651 q 458 733 546 733 q 378 722 413 733 q 315 692 343 711 q 266 649 288 674 q 226 597 244 624 l 226 718 l 119 718 l 119 0 l 226 0 l 226 410 q 242 501 226 460 q 284 572 257 542 q 347 619 311 603 q 426 636 383 636 q 562 580 513 636 q 611 422 611 524 l 611 0 l 717 0 l 717 414 q 733 508 717 467 q 776 578 749 550 q 839 622 803 607 q 915 636 875 636 q 1052 580 1003 636 q 1101 419 1101 524 l 1101 0 l 1208 0 l 1208 444 q 1138 656 1208 579 q 942 733 1067 733 q 856 722 894 733 q 788 692 818 711 q 733 646 757 672 q 689 590 708 619 z "},"n":{"ha":856,"x_min":119,"x_max":747,"o":"m 226 411 q 242 503 226 461 q 288 574 258 544 q 356 620 317 604 q 442 636 396 636 q 589 578 538 636 q 640 419 640 519 l 640 0 l 747 0 l 747 446 q 728 563 747 510 q 674 653 710 615 q 588 713 639 692 q 472 733 538 733 q 321 692 379 733 q 226 593 263 651 l 226 718 l 119 718 l 119 0 l 226 0 l 226 411 z "},"o":{"ha":897,"x_min":75,"x_max":824,"o":"m 824 360 q 796 504 824 436 q 718 623 768 572 q 599 703 668 674 q 450 733 531 733 q 299 703 368 733 q 181 622 231 674 q 103 502 131 571 q 75 357 75 433 q 103 213 75 281 q 181 94 131 144 q 299 13 231 43 q 447 -17 367 -17 q 597 13 528 -17 q 717 94 667 43 q 795 215 767 146 q 824 360 824 283 m 714 357 q 694 248 714 299 q 640 160 675 197 q 557 101 606 122 q 450 79 508 79 q 344 101 393 79 q 260 161 296 124 q 205 250 225 199 q 185 360 185 301 q 204 469 185 418 q 258 558 224 519 q 340 617 292 596 q 447 639 389 639 q 553 617 504 639 q 638 556 601 594 q 694 467 674 518 q 714 357 714 415 z "},"p":{"ha":922,"x_min":119,"x_max":844,"o":"m 844 360 q 815 518 844 449 q 738 635 786 588 q 627 708 689 683 q 501 733 565 733 q 410 720 451 733 q 336 685 369 707 q 276 635 303 664 q 226 574 249 606 l 226 718 l 119 718 l 119 -222 l 226 -222 l 226 138 q 274 79 247 107 q 335 31 301 51 q 410 -3 368 10 q 501 -15 451 -15 q 628 10 567 -15 q 738 84 690 36 q 815 201 786 132 q 844 360 844 271 m 735 358 q 715 241 735 293 q 660 153 694 189 q 580 99 626 118 q 482 81 533 81 q 385 101 432 81 q 302 157 339 121 q 244 245 265 193 q 222 360 222 297 q 244 474 222 422 q 302 561 265 525 q 385 617 339 597 q 482 638 432 638 q 579 618 533 638 q 660 562 625 599 q 715 474 694 525 q 735 358 735 422 z "},"q":{"ha":922,"x_min":78,"x_max":803,"o":"m 803 -222 l 803 718 l 696 718 l 696 581 q 648 639 675 611 q 588 688 621 667 q 513 721 554 708 q 421 733 471 733 q 294 708 356 733 q 185 634 233 682 q 107 517 136 586 q 78 358 78 447 q 107 200 78 269 q 185 83 136 131 q 294 10 233 35 q 421 -15 356 -15 q 512 -3 471 -15 q 586 32 553 10 q 647 83 619 54 q 696 144 674 113 l 696 -222 l 803 -222 m 700 360 q 678 245 700 297 q 620 157 657 193 q 537 101 583 121 q 440 81 490 81 q 343 100 389 81 q 263 156 297 119 q 208 244 228 193 q 188 360 188 296 q 208 477 188 425 q 262 565 228 529 q 342 619 296 600 q 440 638 388 638 q 537 617 490 638 q 620 561 583 597 q 678 474 657 525 q 700 360 700 422 z "},"r":{"ha":563,"x_min":119,"x_max":519,"o":"m 226 286 q 249 428 226 367 q 310 532 271 490 q 401 594 349 574 q 511 615 453 615 l 519 615 l 519 731 q 424 718 468 732 q 342 677 379 704 q 275 613 304 650 q 226 531 246 575 l 226 718 l 119 718 l 119 0 l 226 0 l 226 286 z "},"s":{"ha":692,"x_min":60,"x_max":613,"o":"m 613 201 l 613 204 q 592 286 613 253 q 539 343 572 319 q 465 382 506 367 q 382 410 424 397 q 313 432 346 421 q 253 457 279 443 q 213 490 228 471 q 197 533 197 508 l 197 536 q 235 610 197 581 q 336 640 272 640 q 444 622 389 640 q 549 571 499 603 l 597 651 q 474 709 542 688 q 339 731 406 731 q 241 716 286 731 q 163 674 196 701 q 113 609 131 647 q 94 525 94 571 l 94 522 q 116 439 94 472 q 172 383 138 406 q 248 347 206 361 q 332 319 290 332 q 399 299 367 310 q 457 273 432 288 q 497 239 482 258 q 511 193 511 219 l 511 190 q 469 107 511 138 q 363 76 428 76 q 235 100 299 76 q 114 168 172 124 l 60 92 q 200 15 121 43 q 357 -14 279 -14 q 458 1 411 -14 q 538 43 504 15 q 592 110 572 71 q 613 201 613 150 z "},"t":{"ha":561,"x_min":57,"x_max":492,"o":"m 264 624 l 492 624 l 492 718 l 264 718 l 264 935 l 157 935 l 157 718 l 57 718 l 57 624 l 157 624 l 157 190 q 172 97 157 136 q 215 34 188 58 q 279 -1 242 10 q 360 -12 317 -12 q 430 -5 399 -12 q 489 18 461 3 l 489 110 q 437 90 461 96 q 385 85 413 85 q 297 111 331 85 q 264 204 264 138 l 264 624 z "},"u":{"ha":856,"x_min":108,"x_max":735,"o":"m 629 307 q 613 215 629 257 q 567 144 596 174 q 499 98 539 114 q 414 82 460 82 q 267 140 318 82 q 215 299 215 199 l 215 718 l 108 718 l 108 272 q 127 156 108 208 q 181 65 146 103 q 267 6 217 26 q 383 -15 318 -15 q 535 26 476 -15 q 629 125 593 67 l 629 0 l 735 0 l 735 718 l 629 718 l 629 307 z "},"v":{"ha":815,"x_min":49,"x_max":767,"o":"m 408 122 l 167 718 l 49 718 l 360 -6 l 454 -6 l 767 718 l 651 718 l 408 122 z "},"w":{"ha":1196,"x_min":58,"x_max":1138,"o":"m 643 721 l 554 721 l 361 142 l 172 718 l 58 718 l 310 -6 l 404 -6 l 599 561 l 792 -6 l 885 -6 l 1138 718 l 1026 718 l 838 142 l 643 721 z "},"x":{"ha":797,"x_min":54,"x_max":743,"o":"m 460 368 l 732 718 l 613 718 l 400 440 l 188 718 l 65 718 l 336 365 l 54 0 l 174 0 l 397 293 l 619 0 l 743 0 l 460 368 z "},"y":{"ha":821,"x_min":47,"x_max":771,"o":"m 771 718 l 657 718 l 426 119 l 165 718 l 47 718 l 374 3 q 308 -103 342 -74 q 226 -132 275 -132 q 166 -126 192 -132 q 114 -106 140 -119 l 78 -190 q 150 -217 114 -208 q 231 -226 186 -226 q 367 -181 311 -226 q 469 -24 424 -135 l 771 718 z "},"z":{"ha":772,"x_min":78,"x_max":700,"o":"m 554 628 l 78 68 l 78 0 l 700 0 l 700 90 l 222 90 l 700 650 l 700 718 l 94 718 l 94 628 l 554 628 z "},"{":{"ha":671,"x_min":78,"x_max":594,"o":"m 594 922 l 578 993 q 425 951 483 976 q 333 890 367 925 q 288 811 300 856 q 276 713 276 767 q 276 690 276 704 q 277 660 276 676 q 278 629 278 644 q 278 607 278 615 q 242 483 278 525 q 114 440 207 440 l 78 440 l 78 357 l 114 357 q 242 314 207 357 q 278 190 278 271 q 278 167 278 182 q 277 136 278 151 q 276 107 276 121 q 276 85 276 93 q 288 -14 276 31 q 333 -93 300 -58 q 425 -153 367 -128 q 578 -196 483 -179 l 594 -125 q 478 -87 521 -107 q 413 -41 436 -67 q 384 18 390 -15 q 378 99 378 51 q 378 150 378 119 q 379 203 379 181 q 369 278 379 246 q 342 333 360 310 q 297 372 324 356 q 235 399 269 388 q 340 463 301 419 q 379 594 379 507 q 378 647 379 617 q 378 699 378 678 q 384 779 378 746 q 413 838 390 813 q 478 883 436 864 q 594 922 521 903 z "},"|":{"ha":421,"x_min":165,"x_max":256,"o":"m 256 -178 l 256 1108 l 165 1108 l 165 -178 l 256 -178 z "},"}":{"ha":671,"x_min":75,"x_max":592,"o":"m 75 -125 l 93 -196 q 245 -153 186 -179 q 338 -93 304 -128 q 383 -14 371 -58 q 394 85 394 31 q 394 107 394 93 q 394 136 394 121 q 393 167 393 151 q 393 190 393 182 q 428 315 393 272 q 556 357 463 357 l 592 357 l 592 440 l 556 440 q 428 483 463 440 q 393 607 393 525 q 393 629 393 615 q 394 660 393 644 q 394 690 394 676 q 394 713 394 704 q 383 811 394 767 q 338 890 371 856 q 245 951 304 925 q 93 993 186 976 l 75 922 q 192 883 149 903 q 258 838 235 864 q 287 779 281 813 q 293 699 293 746 q 292 647 293 678 q 292 594 292 617 q 329 464 292 507 q 436 399 367 421 q 331 334 369 378 q 292 203 292 290 q 292 150 292 181 q 293 99 293 119 q 287 18 293 51 q 258 -41 281 -15 q 192 -87 235 -67 q 75 -125 149 -107 z "},"~":{"ha":657,"x_min":101,"x_max":556,"o":"m 556 489 l 492 507 q 462 453 476 468 q 419 438 447 438 q 378 447 401 438 q 331 466 356 456 q 281 485 307 476 q 233 494 256 494 q 153 460 183 494 q 101 347 122 426 l 167 329 q 197 383 182 368 q 239 399 211 399 q 279 390 257 399 q 326 370 301 381 q 376 351 351 360 q 425 342 401 342 q 505 376 475 342 q 556 489 535 410 z "},"Ä":{"ha":1097,"x_min":54,"x_max":1043,"o":"m 600 979 l 497 979 l 54 0 l 167 0 l 282 257 l 811 257 l 925 0 l 1043 0 l 600 979 m 768 356 l 325 356 l 547 851 l 768 356 m 733 1058 l 733 1190 l 608 1190 l 608 1058 l 733 1058 m 489 1058 l 489 1190 l 364 1190 l 364 1058 l 489 1058 z "},"Å":{"ha":1097,"x_min":54,"x_max":1043,"o":"m 481 944 l 54 0 l 167 0 l 282 257 l 811 257 l 925 0 l 1043 0 l 617 944 q 672 994 650 963 q 693 1065 693 1025 q 681 1119 693 1094 q 649 1163 669 1144 q 603 1193 629 1182 q 549 1204 578 1204 q 494 1193 519 1204 q 448 1163 468 1182 q 416 1119 428 1144 q 404 1065 404 1094 q 426 994 404 1025 q 481 944 447 963 m 635 1065 q 610 1004 635 1029 q 549 979 585 979 q 488 1004 513 979 q 463 1065 463 1029 q 488 1126 463 1101 q 549 1151 513 1151 q 610 1126 585 1151 q 635 1065 635 1101 m 768 356 l 325 356 l 547 851 l 768 356 z "},"Ç":{"ha":1025,"x_min":94,"x_max":971,"o":"m 515 -12 l 408 -168 l 513 -215 l 604 -17 q 717 -1 665 -14 q 813 35 768 13 q 896 87 857 57 q 971 154 935 117 l 899 225 q 757 122 829 158 q 585 85 685 85 q 435 116 504 85 q 316 201 367 147 q 237 329 265 256 q 208 488 208 403 q 237 645 208 572 q 316 772 265 718 q 435 857 367 826 q 585 888 504 888 q 756 850 685 888 q 890 754 828 813 l 965 835 q 890 898 929 869 q 806 947 851 926 q 706 978 760 967 q 586 989 653 989 q 389 949 479 989 q 233 841 299 910 q 131 681 168 772 q 94 485 94 589 q 126 302 94 388 q 213 151 157 217 q 346 42 268 85 q 515 -12 424 0 z "},"É":{"ha":931,"x_min":138,"x_max":847,"o":"m 840 972 l 138 972 l 138 0 l 847 0 l 847 100 l 247 100 l 247 440 l 778 440 l 778 540 l 247 540 l 247 872 l 840 872 l 840 972 m 499 1058 l 656 1208 l 544 1260 l 413 1058 l 499 1058 z "},"Ñ":{"ha":1097,"x_min":138,"x_max":960,"o":"m 853 193 l 240 972 l 138 972 l 138 0 l 244 0 l 244 797 l 872 0 l 960 0 l 960 972 l 853 972 l 853 193 m 776 1204 l 711 1222 q 681 1169 696 1185 q 639 1154 667 1154 q 599 1163 621 1154 q 551 1181 576 1171 q 501 1201 526 1192 q 453 1210 476 1210 q 372 1176 403 1210 q 321 1064 342 1143 l 386 1046 q 416 1099 401 1083 q 458 1114 431 1114 q 499 1105 476 1114 q 546 1085 521 1096 q 596 1067 571 1075 q 644 1058 621 1058 q 725 1092 694 1058 q 776 1204 756 1125 z "},"Ö":{"ha":1181,"x_min":94,"x_max":1086,"o":"m 1086 488 q 1051 680 1086 589 q 950 840 1015 771 q 794 949 885 908 q 592 989 703 989 q 389 948 481 989 q 232 838 297 907 q 131 677 167 768 q 94 485 94 586 q 130 292 94 383 q 231 133 165 201 q 387 24 296 64 q 589 -17 478 -17 q 792 24 700 -17 q 949 135 883 65 q 1050 295 1014 204 q 1086 488 1086 386 m 972 485 q 944 328 972 401 q 865 201 915 256 q 745 116 815 147 q 592 85 675 85 q 438 117 508 85 q 317 203 368 149 q 237 331 265 257 q 208 488 208 404 q 237 644 208 571 q 315 771 265 717 q 435 856 365 825 q 589 888 506 888 q 742 856 672 888 q 864 769 813 824 q 944 642 915 715 q 972 485 972 568 m 775 1058 l 775 1190 l 650 1190 l 650 1058 l 775 1058 m 531 1058 l 531 1190 l 406 1190 l 406 1058 l 531 1058 z "},"Ü":{"ha":1054,"x_min":122,"x_max":932,"o":"m 932 972 l 822 972 l 822 407 q 743 167 822 247 q 529 86 664 86 q 310 171 389 86 q 232 414 232 256 l 232 972 l 122 972 l 122 407 q 151 225 122 304 q 234 92 181 146 q 362 12 288 39 q 526 -15 436 -15 q 692 12 618 -15 q 820 93 767 39 q 903 228 874 147 q 932 415 932 308 l 932 972 m 711 1054 l 711 1186 l 586 1186 l 586 1054 l 711 1054 m 467 1054 l 467 1186 l 342 1186 l 342 1054 l 467 1054 z "},"á":{"ha":804,"x_min":65,"x_max":696,"o":"m 379 633 q 537 584 481 633 q 593 438 593 535 l 593 413 q 493 435 544 426 q 372 443 442 443 q 248 428 304 443 q 151 383 192 413 q 88 310 110 354 q 65 210 65 267 q 88 111 65 153 q 149 41 111 69 q 235 -1 188 13 q 333 -15 283 -15 q 492 22 429 -15 q 593 108 556 60 l 593 0 l 696 0 l 696 439 q 617 655 696 582 q 390 728 538 728 q 250 712 311 728 q 129 668 189 696 l 161 581 q 263 619 211 604 q 379 633 315 633 m 383 364 q 502 354 450 364 q 594 333 554 344 l 594 264 q 576 185 594 221 q 524 124 557 150 q 448 84 492 99 q 354 69 404 69 q 285 79 318 69 q 228 108 253 89 q 188 153 203 126 q 174 214 174 179 q 228 324 174 283 q 383 364 282 364 m 431 826 l 588 976 l 476 1028 l 344 826 l 431 826 z "},"à":{"ha":804,"x_min":65,"x_max":696,"o":"m 379 633 q 537 584 481 633 q 593 438 593 535 l 593 413 q 493 435 544 426 q 372 443 442 443 q 248 428 304 443 q 151 383 192 413 q 88 310 110 354 q 65 210 65 267 q 88 111 65 153 q 149 41 111 69 q 235 -1 188 13 q 333 -15 283 -15 q 492 22 429 -15 q 593 108 556 60 l 593 0 l 696 0 l 696 439 q 617 655 696 582 q 390 728 538 728 q 250 712 311 728 q 129 668 189 696 l 161 581 q 263 619 211 604 q 379 633 315 633 m 383 364 q 502 354 450 364 q 594 333 554 344 l 594 264 q 576 185 594 221 q 524 124 557 150 q 448 84 492 99 q 354 69 404 69 q 285 79 318 69 q 228 108 253 89 q 188 153 203 126 q 174 214 174 179 q 228 324 174 283 q 383 364 282 364 m 363 826 l 449 826 l 317 1028 l 206 976 l 363 826 z "},"â":{"ha":804,"x_min":65,"x_max":696,"o":"m 379 633 q 537 584 481 633 q 593 438 593 535 l 593 413 q 493 435 544 426 q 372 443 442 443 q 248 428 304 443 q 151 383 192 413 q 88 310 110 354 q 65 210 65 267 q 88 111 65 153 q 149 41 111 69 q 235 -1 188 13 q 333 -15 283 -15 q 492 22 429 -15 q 593 108 556 60 l 593 0 l 696 0 l 696 439 q 617 655 696 582 q 390 728 538 728 q 250 712 311 728 q 129 668 189 696 l 161 581 q 263 619 211 604 q 379 633 315 633 m 383 364 q 502 354 450 364 q 594 333 554 344 l 594 264 q 576 185 594 221 q 524 124 557 150 q 448 84 492 99 q 354 69 404 69 q 285 79 318 69 q 228 108 253 89 q 188 153 203 126 q 174 214 174 179 q 228 324 174 283 q 383 364 282 364 m 403 919 l 507 826 l 599 826 l 451 1008 l 357 1008 l 210 826 l 299 826 l 403 919 z "},"ä":{"ha":804,"x_min":65,"x_max":696,"o":"m 379 633 q 537 584 481 633 q 593 438 593 535 l 593 413 q 493 435 544 426 q 372 443 442 443 q 248 428 304 443 q 151 383 192 413 q 88 310 110 354 q 65 210 65 267 q 88 111 65 153 q 149 41 111 69 q 235 -1 188 13 q 333 -15 283 -15 q 492 22 429 -15 q 593 108 556 60 l 593 0 l 696 0 l 696 439 q 617 655 696 582 q 390 728 538 728 q 250 712 311 728 q 129 668 189 696 l 161 581 q 263 619 211 604 q 379 633 315 633 m 383 364 q 502 354 450 364 q 594 333 554 344 l 594 264 q 576 185 594 221 q 524 124 557 150 q 448 84 492 99 q 354 69 404 69 q 285 79 318 69 q 228 108 253 89 q 188 153 203 126 q 174 214 174 179 q 228 324 174 283 q 383 364 282 364 m 589 826 l 589 958 l 464 958 l 464 826 l 589 826 m 344 826 l 344 958 l 219 958 l 219 826 l 344 826 z "},"ã":{"ha":804,"x_min":65,"x_max":696,"o":"m 379 633 q 537 584 481 633 q 593 438 593 535 l 593 413 q 493 435 544 426 q 372 443 442 443 q 248 428 304 443 q 151 383 192 413 q 88 310 110 354 q 65 210 65 267 q 88 111 65 153 q 149 41 111 69 q 235 -1 188 13 q 333 -15 283 -15 q 492 22 429 -15 q 593 108 556 60 l 593 0 l 696 0 l 696 439 q 617 655 696 582 q 390 728 538 728 q 250 712 311 728 q 129 668 189 696 l 161 581 q 263 619 211 604 q 379 633 315 633 m 383 364 q 502 354 450 364 q 594 333 554 344 l 594 264 q 576 185 594 221 q 524 124 557 150 q 448 84 492 99 q 354 69 404 69 q 285 79 318 69 q 228 108 253 89 q 188 153 203 126 q 174 214 174 179 q 228 324 174 283 q 383 364 282 364 m 633 972 l 568 990 q 538 938 553 953 q 496 922 524 922 q 456 931 478 922 q 408 949 433 939 q 358 969 383 960 q 310 978 333 978 q 229 944 260 978 q 178 832 199 911 l 243 814 q 273 867 258 851 q 315 882 288 882 q 356 873 333 882 q 403 853 378 864 q 453 835 428 843 q 501 826 478 826 q 582 860 551 826 q 633 972 613 893 z "},"å":{"ha":804,"x_min":65,"x_max":696,"o":"m 379 633 q 537 584 481 633 q 593 438 593 535 l 593 413 q 493 435 544 426 q 372 443 442 443 q 248 428 304 443 q 151 383 192 413 q 88 310 110 354 q 65 210 65 267 q 88 111 65 153 q 149 41 111 69 q 235 -1 188 13 q 333 -15 283 -15 q 492 22 429 -15 q 593 108 556 60 l 593 0 l 696 0 l 696 439 q 617 655 696 582 q 390 728 538 728 q 250 712 311 728 q 129 668 189 696 l 161 581 q 263 619 211 604 q 379 633 315 633 m 383 364 q 502 354 450 364 q 594 333 554 344 l 594 264 q 576 185 594 221 q 524 124 557 150 q 448 84 492 99 q 354 69 404 69 q 285 79 318 69 q 228 108 253 89 q 188 153 203 126 q 174 214 174 179 q 228 324 174 283 q 383 364 282 364 m 549 963 q 537 1017 549 992 q 505 1060 525 1042 q 459 1090 485 1079 q 404 1101 433 1101 q 349 1090 375 1101 q 303 1060 324 1079 q 272 1017 283 1042 q 260 963 260 992 q 272 908 260 933 q 303 865 283 883 q 349 835 324 846 q 404 824 375 824 q 459 835 433 824 q 505 865 485 846 q 537 908 525 883 q 549 963 549 933 m 490 963 q 465 901 490 926 q 404 876 440 876 q 343 901 368 876 q 318 963 318 926 q 343 1024 318 999 q 404 1049 368 1049 q 465 1024 440 1049 q 490 963 490 999 z "},"ç":{"ha":793,"x_min":75,"x_max":736,"o":"m 376 -10 l 268 -168 l 372 -215 l 464 -17 q 620 26 557 -11 q 736 122 683 64 l 668 186 q 572 110 625 140 q 449 79 518 79 q 344 101 392 79 q 260 160 296 122 q 205 250 225 199 q 185 360 185 301 q 204 469 185 418 q 258 558 224 519 q 340 617 293 596 q 442 639 388 639 q 566 607 515 639 q 660 531 617 575 l 731 606 q 676 656 706 632 q 613 697 647 679 q 536 724 578 714 q 443 733 494 733 q 297 703 364 733 q 180 622 229 674 q 103 502 131 571 q 75 357 75 433 q 97 227 75 289 q 160 117 119 165 q 256 35 200 68 q 376 -10 311 1 z "},"é":{"ha":822,"x_min":75,"x_max":754,"o":"m 183 319 l 753 319 q 754 338 754 329 q 754 353 754 346 q 732 501 754 432 q 667 622 710 571 q 561 703 624 674 q 419 733 499 733 q 281 704 344 733 q 172 624 218 675 q 101 505 126 574 q 75 358 75 436 q 103 206 75 275 q 181 87 132 136 q 294 10 229 38 q 433 -17 360 -17 q 606 20 536 -17 q 729 118 675 57 l 663 178 q 565 104 618 132 q 436 76 511 76 q 346 92 389 76 q 268 140 303 108 q 211 216 233 171 q 183 319 189 261 m 183 399 q 208 496 189 451 q 258 573 228 540 q 329 624 289 606 q 417 643 369 643 q 512 623 471 643 q 581 569 553 603 q 626 492 610 536 q 646 399 642 447 l 183 399 m 439 826 l 596 976 l 485 1028 l 353 826 l 439 826 z "},"è":{"ha":822,"x_min":75,"x_max":754,"o":"m 183 319 l 753 319 q 754 338 754 329 q 754 353 754 346 q 732 501 754 432 q 667 622 710 571 q 561 703 624 674 q 419 733 499 733 q 281 704 344 733 q 172 624 218 675 q 101 505 126 574 q 75 358 75 436 q 103 206 75 275 q 181 87 132 136 q 294 10 229 38 q 433 -17 360 -17 q 606 20 536 -17 q 729 118 675 57 l 663 178 q 565 104 618 132 q 436 76 511 76 q 346 92 389 76 q 268 140 303 108 q 211 216 233 171 q 183 319 189 261 m 183 399 q 208 496 189 451 q 258 573 228 540 q 329 624 289 606 q 417 643 369 643 q 512 623 471 643 q 581 569 553 603 q 626 492 610 536 q 646 399 642 447 l 183 399 m 383 826 l 469 826 l 338 1028 l 226 976 l 383 826 z "},"ê":{"ha":822,"x_min":75,"x_max":754,"o":"m 183 319 l 753 319 q 754 338 754 329 q 754 353 754 346 q 732 501 754 432 q 667 622 710 571 q 561 703 624 674 q 419 733 499 733 q 281 704 344 733 q 172 624 218 675 q 101 505 126 574 q 75 358 75 436 q 103 206 75 275 q 181 87 132 136 q 294 10 229 38 q 433 -17 360 -17 q 606 20 536 -17 q 729 118 675 57 l 663 178 q 565 104 618 132 q 436 76 511 76 q 346 92 389 76 q 268 140 303 108 q 211 216 233 171 q 183 319 189 261 m 183 399 q 208 496 189 451 q 258 573 228 540 q 329 624 289 606 q 417 643 369 643 q 512 623 471 643 q 581 569 553 603 q 626 492 610 536 q 646 399 642 447 l 183 399 m 414 919 l 518 826 l 610 826 l 463 1008 l 368 1008 l 221 826 l 310 826 l 414 919 z "},"ë":{"ha":822,"x_min":75,"x_max":754,"o":"m 183 319 l 753 319 q 754 338 754 329 q 754 353 754 346 q 732 501 754 432 q 667 622 710 571 q 561 703 624 674 q 419 733 499 733 q 281 704 344 733 q 172 624 218 675 q 101 505 126 574 q 75 358 75 436 q 103 206 75 275 q 181 87 132 136 q 294 10 229 38 q 433 -17 360 -17 q 606 20 536 -17 q 729 118 675 57 l 663 178 q 565 104 618 132 q 436 76 511 76 q 346 92 389 76 q 268 140 303 108 q 211 216 233 171 q 183 319 189 261 m 183 399 q 208 496 189 451 q 258 573 228 540 q 329 624 289 606 q 417 643 369 643 q 512 623 471 643 q 581 569 553 603 q 626 492 610 536 q 646 399 642 447 l 183 399 m 600 826 l 600 958 l 475 958 l 475 826 l 600 826 m 356 826 l 356 958 l 231 958 l 231 826 l 356 826 z "},"í":{"ha":365,"x_min":129,"x_max":383,"o":"m 236 0 l 236 718 l 129 718 l 129 0 l 236 0 m 226 826 l 383 976 l 272 1028 l 140 826 l 226 826 z "},"ì":{"ha":365,"x_min":129,"x_max":374,"o":"m 236 0 l 236 718 l 129 718 l 129 0 l 236 0 m 288 826 l 374 826 l 242 1028 l 131 976 l 288 826 z "},"î":{"ha":365,"x_min":129,"x_max":519,"o":"m 236 0 l 236 718 l 129 718 l 129 0 l 236 0 m 324 919 l 428 826 l 519 826 l 372 1008 l 278 1008 l 131 826 l 219 826 l 324 919 z "},"ï":{"ha":365,"x_min":129,"x_max":500,"o":"m 236 0 l 236 718 l 129 718 l 129 0 l 236 0 m 500 826 l 500 958 l 375 958 l 375 826 l 500 826 m 256 826 l 256 958 l 131 958 l 131 826 l 256 826 z "},"ñ":{"ha":856,"x_min":119,"x_max":747,"o":"m 226 411 q 242 503 226 461 q 288 574 258 544 q 356 620 317 604 q 442 636 396 636 q 589 578 538 636 q 640 419 640 519 l 640 0 l 747 0 l 747 446 q 728 563 747 510 q 674 653 710 615 q 588 713 639 692 q 472 733 538 733 q 321 692 379 733 q 226 593 263 651 l 226 718 l 119 718 l 119 0 l 226 0 l 226 411 m 661 972 l 596 990 q 566 938 581 953 q 524 922 551 922 q 483 931 506 922 q 436 949 461 939 q 386 969 411 960 q 338 978 361 978 q 257 944 288 978 q 206 832 226 911 l 271 814 q 301 867 286 851 q 343 882 315 882 q 383 873 361 882 q 431 853 406 864 q 481 835 456 843 q 529 826 506 826 q 610 860 579 826 q 661 972 640 893 z "},"ó":{"ha":897,"x_min":75,"x_max":824,"o":"m 824 360 q 796 504 824 436 q 718 623 768 572 q 599 703 668 674 q 450 733 531 733 q 299 703 368 733 q 181 622 231 674 q 103 502 131 571 q 75 357 75 433 q 103 213 75 281 q 181 94 131 144 q 299 13 231 43 q 447 -17 367 -17 q 597 13 528 -17 q 717 94 667 43 q 795 215 767 146 q 824 360 824 283 m 714 357 q 694 248 714 299 q 640 160 675 197 q 557 101 606 122 q 450 79 508 79 q 344 101 393 79 q 260 161 296 124 q 205 250 225 199 q 185 360 185 301 q 204 469 185 418 q 258 558 224 519 q 340 617 292 596 q 447 639 389 639 q 553 617 504 639 q 638 556 601 594 q 694 467 674 518 q 714 357 714 415 m 493 826 l 650 976 l 539 1028 l 407 826 l 493 826 z "},"ò":{"ha":897,"x_min":75,"x_max":824,"o":"m 824 360 q 796 504 824 436 q 718 623 768 572 q 599 703 668 674 q 450 733 531 733 q 299 703 368 733 q 181 622 231 674 q 103 502 131 571 q 75 357 75 433 q 103 213 75 281 q 181 94 131 144 q 299 13 231 43 q 447 -17 367 -17 q 597 13 528 -17 q 717 94 667 43 q 795 215 767 146 q 824 360 824 283 m 714 357 q 694 248 714 299 q 640 160 675 197 q 557 101 606 122 q 450 79 508 79 q 344 101 393 79 q 260 161 296 124 q 205 250 225 199 q 185 360 185 301 q 204 469 185 418 q 258 558 224 519 q 340 617 292 596 q 447 639 389 639 q 553 617 504 639 q 638 556 601 594 q 694 467 674 518 q 714 357 714 415 m 406 826 l 492 826 l 360 1028 l 249 976 l 406 826 z "},"ô":{"ha":897,"x_min":75,"x_max":824,"o":"m 824 360 q 796 504 824 436 q 718 623 768 572 q 599 703 668 674 q 450 733 531 733 q 299 703 368 733 q 181 622 231 674 q 103 502 131 571 q 75 357 75 433 q 103 213 75 281 q 181 94 131 144 q 299 13 231 43 q 447 -17 367 -17 q 597 13 528 -17 q 717 94 667 43 q 795 215 767 146 q 824 360 824 283 m 714 357 q 694 248 714 299 q 640 160 675 197 q 557 101 606 122 q 450 79 508 79 q 344 101 393 79 q 260 161 296 124 q 205 250 225 199 q 185 360 185 301 q 204 469 185 418 q 258 558 224 519 q 340 617 292 596 q 447 639 389 639 q 553 617 504 639 q 638 556 601 594 q 694 467 674 518 q 714 357 714 415 m 447 919 l 551 826 l 643 826 l 496 1008 l 401 1008 l 254 826 l 343 826 l 447 919 z "},"ö":{"ha":897,"x_min":75,"x_max":824,"o":"m 824 360 q 796 504 824 436 q 718 623 768 572 q 599 703 668 674 q 450 733 531 733 q 299 703 368 733 q 181 622 231 674 q 103 502 131 571 q 75 357 75 433 q 103 213 75 281 q 181 94 131 144 q 299 13 231 43 q 447 -17 367 -17 q 597 13 528 -17 q 717 94 667 43 q 795 215 767 146 q 824 360 824 283 m 714 357 q 694 248 714 299 q 640 160 675 197 q 557 101 606 122 q 450 79 508 79 q 344 101 393 79 q 260 161 296 124 q 205 250 225 199 q 185 360 185 301 q 204 469 185 418 q 258 558 224 519 q 340 617 292 596 q 447 639 389 639 q 553 617 504 639 q 638 556 601 594 q 694 467 674 518 q 714 357 714 415 m 633 826 l 633 958 l 508 958 l 508 826 l 633 826 m 389 826 l 389 958 l 264 958 l 264 826 l 389 826 z "},"õ":{"ha":897,"x_min":75,"x_max":824,"o":"m 824 360 q 796 504 824 436 q 718 623 768 572 q 599 703 668 674 q 450 733 531 733 q 299 703 368 733 q 181 622 231 674 q 103 502 131 571 q 75 357 75 433 q 103 213 75 281 q 181 94 131 144 q 299 13 231 43 q 447 -17 367 -17 q 597 13 528 -17 q 717 94 667 43 q 795 215 767 146 q 824 360 824 283 m 714 357 q 694 248 714 299 q 640 160 675 197 q 557 101 606 122 q 450 79 508 79 q 344 101 393 79 q 260 161 296 124 q 205 250 225 199 q 185 360 185 301 q 204 469 185 418 q 258 558 224 519 q 340 617 292 596 q 447 639 389 639 q 553 617 504 639 q 638 556 601 594 q 694 467 674 518 q 714 357 714 415 m 676 972 l 611 990 q 581 938 596 953 q 539 922 567 922 q 499 931 521 922 q 451 949 476 939 q 401 969 426 960 q 353 978 376 978 q 272 944 303 978 q 221 832 242 911 l 286 814 q 316 867 301 851 q 358 882 331 882 q 399 873 376 882 q 446 853 421 864 q 496 835 471 843 q 544 826 521 826 q 625 860 594 826 q 676 972 656 893 z "},"ú":{"ha":856,"x_min":108,"x_max":735,"o":"m 629 307 q 613 215 629 257 q 567 144 596 174 q 499 98 539 114 q 414 82 460 82 q 267 140 318 82 q 215 299 215 199 l 215 718 l 108 718 l 108 272 q 127 156 108 208 q 181 65 146 103 q 267 6 217 26 q 383 -15 318 -15 q 535 26 476 -15 q 629 125 593 67 l 629 0 l 735 0 l 735 718 l 629 718 l 629 307 m 456 822 l 613 972 l 501 1024 l 369 822 l 456 822 z "},"ù":{"ha":856,"x_min":108,"x_max":735,"o":"m 629 307 q 613 215 629 257 q 567 144 596 174 q 499 98 539 114 q 414 82 460 82 q 267 140 318 82 q 215 299 215 199 l 215 718 l 108 718 l 108 272 q 127 156 108 208 q 181 65 146 103 q 267 6 217 26 q 383 -15 318 -15 q 535 26 476 -15 q 629 125 593 67 l 629 0 l 735 0 l 735 718 l 629 718 l 629 307 m 394 822 l 481 822 l 349 1024 l 238 972 l 394 822 z "},"û":{"ha":856,"x_min":108,"x_max":735,"o":"m 629 307 q 613 215 629 257 q 567 144 596 174 q 499 98 539 114 q 414 82 460 82 q 267 140 318 82 q 215 299 215 199 l 215 718 l 108 718 l 108 272 q 127 156 108 208 q 181 65 146 103 q 267 6 217 26 q 383 -15 318 -15 q 535 26 476 -15 q 629 125 593 67 l 629 0 l 735 0 l 735 718 l 629 718 l 629 307 m 428 919 l 532 826 l 624 826 l 476 1008 l 382 1008 l 235 826 l 324 826 l 428 919 z "},"ü":{"ha":856,"x_min":108,"x_max":735,"o":"m 629 307 q 613 215 629 257 q 567 144 596 174 q 499 98 539 114 q 414 82 460 82 q 267 140 318 82 q 215 299 215 199 l 215 718 l 108 718 l 108 272 q 127 156 108 208 q 181 65 146 103 q 267 6 217 26 q 383 -15 318 -15 q 535 26 476 -15 q 629 125 593 67 l 629 0 l 735 0 l 735 718 l 629 718 l 629 307 m 614 826 l 614 958 l 489 958 l 489 826 l 614 826 m 369 826 l 369 958 l 244 958 l 244 826 l 369 826 z "},"†":{"ha":569,"x_min":83,"x_max":486,"o":"m 314 722 l 486 711 l 486 788 l 315 776 l 328 972 l 242 972 l 254 776 l 83 788 l 83 711 l 256 722 l 247 331 l 322 331 l 314 722 z "},"°":{"ha":636,"x_min":100,"x_max":536,"o":"m 536 768 q 518 849 536 811 q 469 917 500 888 q 400 963 439 946 q 318 981 361 981 q 235 963 275 981 q 166 917 196 946 q 118 849 136 888 q 100 768 100 811 q 118 687 100 725 q 166 619 136 649 q 235 573 196 590 q 318 556 275 556 q 400 573 361 556 q 469 619 439 590 q 518 687 500 649 q 536 768 536 725 m 456 768 q 445 715 456 740 q 417 671 435 690 q 373 640 399 651 q 318 628 347 628 q 263 640 289 628 q 219 671 238 651 q 191 715 201 690 q 181 768 181 740 q 191 821 181 796 q 219 865 201 846 q 263 897 238 885 q 318 908 289 908 q 373 897 347 908 q 417 865 399 885 q 445 821 435 846 q 456 768 456 796 z "},"¢":{"ha":807,"x_min":81,"x_max":740,"o":"m 740 258 l 674 321 q 579 246 632 276 q 460 214 526 215 q 442 215 450 214 q 425 217 433 215 l 529 760 q 604 722 572 747 q 667 667 636 697 l 736 739 q 656 810 700 779 q 553 856 613 840 l 578 981 l 488 981 l 467 868 l 449 868 q 303 838 371 868 q 187 757 236 808 q 109 637 138 706 q 81 492 81 568 q 99 376 81 431 q 149 274 117 321 q 226 193 181 228 q 325 139 271 158 l 294 -8 l 385 -8 l 410 121 q 429 118 421 118 q 450 118 439 118 q 617 157 549 118 q 740 258 686 196 m 451 772 l 349 236 q 233 338 278 268 q 189 494 189 407 q 208 603 189 553 q 262 690 228 653 q 342 750 296 728 q 443 772 389 772 l 451 772 z "},"£":{"ha":894,"x_min":93,"x_max":814,"o":"m 210 506 l 93 506 l 93 410 l 210 410 l 210 93 l 93 64 l 93 0 l 813 0 l 813 97 l 319 97 l 319 410 l 707 410 l 707 506 l 319 506 l 319 656 q 370 823 319 761 q 515 885 421 885 q 640 853 592 885 q 729 769 689 821 l 814 836 q 696 943 765 900 q 517 986 626 986 q 386 963 443 986 q 290 895 329 939 q 231 790 251 851 q 210 656 210 729 l 210 506 z "},"§":{"ha":878,"x_min":86,"x_max":792,"o":"m 792 474 q 776 538 792 510 q 726 590 761 567 q 637 633 692 614 q 503 672 582 653 q 394 702 438 688 q 324 733 350 717 q 288 765 299 749 q 276 801 276 782 q 311 868 276 842 q 419 894 346 894 q 559 865 496 894 q 671 788 622 835 l 740 854 q 601 950 682 914 q 422 986 519 986 q 235 935 304 986 q 167 800 167 885 q 194 718 167 754 q 269 658 222 682 q 136 603 186 644 q 86 499 86 563 q 101 434 86 463 q 151 382 117 406 q 241 338 186 358 q 375 300 296 318 q 484 270 440 285 q 553 240 528 256 q 590 207 579 224 q 601 171 601 190 q 567 104 601 131 q 458 78 532 78 q 319 108 382 78 q 207 185 256 138 l 138 118 q 277 22 196 58 q 456 -14 358 -14 q 642 37 574 -14 q 711 172 711 88 q 683 254 711 218 q 608 314 656 290 q 742 369 692 328 q 792 474 792 410 m 689 463 q 648 394 689 422 q 538 365 607 365 q 474 370 510 365 q 386 388 438 375 q 291 416 329 401 q 230 445 253 431 q 198 476 207 460 q 189 510 189 492 q 230 578 189 550 q 340 607 271 607 q 403 602 368 607 q 492 585 439 597 q 587 556 549 571 q 648 527 625 542 q 680 497 671 513 q 689 463 689 481 z "},"•":{"ha":664,"x_min":150,"x_max":514,"o":"m 514 489 q 499 560 514 526 q 460 617 485 593 q 403 656 436 642 q 332 671 369 671 q 261 656 294 671 q 203 617 228 642 q 165 560 179 593 q 150 489 150 526 q 165 418 150 451 q 203 360 179 385 q 261 322 228 336 q 332 307 294 307 q 403 322 369 307 q 460 360 436 336 q 499 418 485 385 q 514 489 514 451 z "},"¶":{"ha":708,"x_min":67,"x_max":581,"o":"m 433 972 q 284 951 351 972 q 169 892 217 931 q 94 797 121 853 q 67 669 67 740 q 97 540 67 596 q 178 444 126 483 q 301 386 231 406 q 454 367 372 367 l 469 367 l 469 0 l 581 0 l 581 972 l 433 972 z "},"ß":{"ha":861,"x_min":119,"x_max":781,"o":"m 721 772 q 701 871 721 825 q 643 951 681 917 q 553 1004 606 985 q 435 1024 500 1024 q 304 1000 363 1024 q 205 933 246 976 q 142 830 164 890 q 119 696 119 769 l 119 0 l 226 0 l 226 697 q 283 867 226 804 q 429 929 340 929 q 561 884 511 929 q 611 765 611 839 q 595 688 611 722 q 552 625 579 653 q 487 576 525 597 q 406 539 449 556 l 406 460 q 599 400 528 447 q 671 268 671 353 q 600 133 671 179 q 406 83 529 86 l 406 -3 q 561 14 492 -4 q 679 67 631 32 q 754 152 728 101 q 781 268 781 203 q 760 364 781 322 q 703 436 739 406 q 623 486 668 467 q 528 517 578 506 q 599 556 564 532 q 660 610 633 579 q 704 682 688 642 q 721 772 721 722 z "},"®":{"ha":1153,"x_min":74,"x_max":1079,"o":"m 1079 488 q 1040 682 1079 590 q 934 842 1001 774 q 775 949 867 910 q 578 989 683 989 q 380 949 472 989 q 219 840 288 908 q 113 679 151 771 q 74 485 74 588 q 113 290 74 382 q 219 131 151 199 q 378 23 286 63 q 575 -17 469 -17 q 773 24 681 -17 q 933 133 865 64 q 1040 293 1001 201 q 1079 488 1079 385 m 1033 488 q 999 309 1033 393 q 902 163 964 225 q 756 63 840 100 q 575 26 672 26 q 394 63 478 26 q 250 161 311 99 q 154 307 189 224 q 119 485 119 390 q 154 663 119 579 q 251 810 189 747 q 396 909 313 872 q 578 946 479 946 q 758 910 675 946 q 903 811 842 874 q 999 665 964 749 q 1033 488 1033 582 m 804 603 q 750 717 804 675 q 610 758 696 758 l 379 758 l 379 243 l 456 243 l 456 438 l 588 438 l 736 243 l 831 243 l 671 450 q 767 501 729 464 q 804 603 804 539 m 725 599 q 691 530 725 554 q 603 506 657 506 l 456 506 l 456 689 l 607 689 q 694 665 663 689 q 725 599 725 642 z "},"©":{"ha":1153,"x_min":74,"x_max":1079,"o":"m 1079 488 q 1040 682 1079 590 q 934 842 1001 774 q 775 949 867 910 q 578 989 683 989 q 380 949 472 989 q 219 840 288 908 q 113 679 151 771 q 74 485 74 588 q 113 290 74 382 q 219 131 151 199 q 378 23 286 63 q 575 -17 469 -17 q 773 24 681 -17 q 933 133 865 64 q 1040 293 1001 201 q 1079 488 1079 385 m 1033 488 q 999 309 1033 393 q 902 163 964 225 q 756 63 840 100 q 575 26 672 26 q 394 63 478 26 q 250 161 311 99 q 154 307 189 224 q 119 485 119 390 q 154 663 119 579 q 251 810 189 747 q 396 909 313 872 q 578 946 479 946 q 758 910 675 946 q 903 811 842 874 q 999 665 964 749 q 1033 488 1033 582 m 788 318 l 738 367 q 668 316 703 335 q 585 297 633 297 q 513 313 546 297 q 454 355 479 328 q 415 418 429 382 q 401 494 401 454 q 415 570 401 535 q 452 633 428 606 q 510 675 476 660 q 583 690 543 690 q 666 670 629 690 q 733 621 703 650 l 785 676 q 701 736 746 713 q 585 760 656 760 q 480 739 528 760 q 397 681 432 718 q 343 596 363 644 q 324 493 324 547 q 343 389 324 438 q 397 304 363 340 q 479 247 432 268 q 582 226 526 226 q 700 251 653 226 q 788 318 747 276 z "},"™":{"ha":958,"x_min":36,"x_max":900,"o":"m 840 872 l 840 544 l 900 544 l 900 972 l 836 972 l 685 738 l 532 972 l 467 972 l 467 544 l 528 544 l 528 872 l 679 640 l 688 640 l 840 872 m 235 914 l 372 914 l 372 972 l 36 972 l 36 914 l 174 914 l 174 544 l 235 544 l 235 914 z "},"´":{"ha":694,"x_min":251,"x_max":494,"o":"m 338 826 l 494 976 l 383 1028 l 251 826 l 338 826 z "},"¨":{"ha":694,"x_min":163,"x_max":532,"o":"m 532 826 l 532 958 l 407 958 l 407 826 l 532 826 m 288 826 l 288 958 l 163 958 l 163 826 l 288 826 z "},"Æ":{"ha":1451,"x_min":24,"x_max":1368,"o":"m 290 257 l 682 257 l 682 0 l 1368 0 l 1368 100 l 793 100 l 793 440 l 1299 440 l 1299 540 l 793 540 l 793 872 l 1361 872 l 1361 972 l 594 972 l 24 0 l 139 0 l 290 257 m 649 875 l 682 875 l 682 356 l 346 356 l 649 875 z "},"Ø":{"ha":1181,"x_min":83,"x_max":1097,"o":"m 1086 488 q 1053 673 1086 585 q 960 828 1021 761 l 1097 979 l 982 979 l 896 886 q 758 962 835 935 q 592 989 682 989 q 389 948 481 989 q 232 838 297 907 q 131 677 167 768 q 94 485 94 586 q 127 299 94 388 q 221 143 160 211 l 83 -7 l 199 -7 l 285 86 q 422 10 346 38 q 589 -17 499 -17 q 792 24 700 -17 q 949 135 883 65 q 1050 295 1014 204 q 1086 488 1086 386 m 826 806 l 294 226 q 230 346 253 279 q 207 488 207 413 q 235 644 207 571 q 315 772 264 718 q 435 858 365 826 q 589 890 506 890 q 719 867 660 890 q 826 806 778 844 m 974 485 q 945 328 974 401 q 866 200 917 254 q 745 114 815 146 q 592 82 675 82 q 462 105 521 82 q 354 167 403 128 l 886 746 q 951 626 928 693 q 974 485 974 560 z "},"±":{"ha":839,"x_min":60,"x_max":758,"o":"m 758 265 q 743 349 758 313 q 702 415 728 386 q 640 465 676 444 q 563 499 604 485 q 625 531 594 511 q 679 578 656 550 q 717 642 703 606 q 732 728 732 679 q 708 833 732 785 q 643 915 685 881 q 543 969 601 950 q 415 989 485 989 q 219 940 300 989 q 81 808 139 890 l 161 750 q 271 853 211 817 q 413 889 331 889 q 565 841 508 889 q 621 718 621 793 q 603 642 621 676 q 556 585 586 608 q 483 550 525 563 q 390 538 440 538 l 288 538 l 288 443 l 388 443 q 579 396 511 443 q 647 265 647 349 q 631 190 647 224 q 585 133 614 157 q 515 96 556 108 q 428 83 475 83 q 264 122 335 83 q 140 228 193 161 l 60 158 q 214 33 121 82 q 425 -17 307 -17 q 561 5 500 -17 q 666 65 622 26 q 734 154 710 103 q 758 265 758 206 z "},"¥":{"ha":953,"x_min":38,"x_max":915,"o":"m 529 369 l 814 369 l 814 456 l 561 456 l 915 972 l 790 972 l 478 497 l 168 972 l 38 972 l 390 456 l 139 456 l 139 369 l 424 369 l 424 247 l 139 247 l 139 161 l 424 161 l 424 0 l 529 0 l 529 161 l 814 161 l 814 247 l 529 247 l 529 369 z "},"µ":{"ha":1181,"x_min":94,"x_max":1146,"o":"m 1086 488 q 1051 680 1086 589 q 950 840 1015 771 q 794 949 885 908 q 592 989 703 989 q 389 948 481 989 q 232 838 297 907 q 131 677 167 768 q 94 485 94 586 q 130 292 94 383 q 231 133 165 201 q 387 24 296 64 q 589 -17 478 -17 q 801 31 704 -17 l 985 -140 l 1146 -140 l 1146 -132 l 907 97 q 1039 269 992 168 q 1086 488 1086 371 m 972 485 q 944 328 972 401 q 865 201 915 256 q 745 116 815 147 q 592 85 675 85 q 438 117 508 85 q 317 203 368 149 q 237 331 265 257 q 208 488 208 404 q 237 644 208 571 q 315 771 265 717 q 435 856 365 825 q 589 888 506 888 q 742 856 672 888 q 864 769 813 824 q 944 642 915 715 q 972 485 972 568 z "},"π":{"ha":1153,"x_min":74,"x_max":1079,"o":"m 1079 488 q 1040 682 1079 590 q 934 842 1001 774 q 775 949 867 910 q 578 989 683 989 q 380 949 472 989 q 219 840 288 908 q 113 679 151 771 q 74 485 74 588 q 113 290 74 382 q 219 131 151 199 q 378 23 286 63 q 575 -17 469 -17 q 773 24 681 -17 q 933 133 865 64 q 1040 293 1001 201 q 1079 488 1079 385 m 1033 488 q 999 309 1033 393 q 902 163 964 225 q 756 63 840 100 q 575 26 672 26 q 394 63 478 26 q 250 161 311 99 q 154 307 189 224 q 119 485 119 390 q 154 663 119 579 q 251 810 189 747 q 396 909 313 872 q 578 946 479 946 q 758 910 675 946 q 903 811 842 874 q 999 665 964 749 q 1033 488 1033 582 m 808 586 q 754 710 808 667 q 608 754 700 754 l 406 754 l 406 239 l 483 239 l 483 413 l 599 413 q 678 423 640 413 q 745 456 717 433 q 791 510 774 478 q 808 586 808 542 m 731 585 q 695 509 731 536 q 600 482 660 482 l 483 482 l 483 685 l 601 685 q 696 660 661 685 q 731 585 731 636 z "},"ª":{"ha":542,"x_min":81,"x_max":442,"o":"m 435 575 l 435 815 q 391 935 435 894 q 265 976 347 976 q 188 967 221 976 q 118 942 154 957 l 139 883 q 198 906 169 897 q 258 914 226 914 q 338 889 310 914 q 367 815 367 864 l 367 808 q 317 819 343 815 q 256 824 292 824 q 132 790 179 824 q 85 693 85 757 q 98 638 85 661 q 132 598 111 614 q 179 574 153 582 q 233 567 206 567 q 310 583 278 567 q 367 628 343 600 l 367 575 l 435 575 m 442 401 l 442 467 l 81 467 l 81 401 l 442 401 m 367 722 q 331 651 367 678 q 246 625 294 625 q 183 643 210 625 q 157 696 157 661 q 184 750 157 729 q 261 771 211 771 q 320 767 294 771 q 367 756 346 763 l 367 722 z "},"º":{"ha":542,"x_min":67,"x_max":475,"o":"m 475 774 q 460 853 475 815 q 417 919 444 890 q 353 963 390 947 q 272 979 315 979 q 190 963 228 979 q 125 917 153 946 q 82 851 97 889 q 67 771 67 814 q 82 692 67 729 q 124 626 97 654 q 188 581 151 597 q 269 565 225 565 q 351 582 314 565 q 417 627 389 599 q 460 693 444 656 q 475 774 475 731 m 471 401 l 471 467 l 71 467 l 71 401 l 471 401 m 400 771 q 365 672 400 713 q 272 632 331 632 q 220 643 244 632 q 178 674 196 654 q 151 719 161 693 q 142 774 142 744 q 176 872 142 832 q 269 913 211 913 q 363 872 326 913 q 400 771 400 831 z "},"æ":{"ha":1324,"x_min":65,"x_max":1257,"o":"m 650 128 q 773 22 699 60 q 935 -17 847 -17 q 1108 20 1038 -17 q 1231 118 1178 57 l 1164 178 q 1066 104 1119 132 q 938 76 1013 76 q 847 92 890 76 q 770 140 804 108 q 714 216 736 171 q 686 319 692 261 l 1254 319 q 1256 338 1256 329 q 1257 353 1257 346 q 1234 501 1257 432 q 1169 622 1211 571 q 1064 703 1126 674 q 922 733 1001 733 q 762 690 833 733 q 647 574 690 646 q 553 690 619 651 q 383 728 486 728 q 247 712 306 728 q 129 668 189 696 l 161 581 q 260 619 211 604 q 372 633 310 633 q 526 584 472 633 q 579 438 579 535 l 579 413 q 482 435 531 426 q 367 443 433 443 q 245 428 300 443 q 150 383 190 413 q 88 310 110 354 q 65 210 65 267 q 88 112 65 154 q 149 42 111 69 q 235 -1 186 14 q 336 -15 283 -15 q 514 26 436 -15 q 650 128 592 68 m 685 399 q 710 496 690 451 q 760 573 729 540 q 831 624 790 606 q 919 643 872 643 q 1013 623 972 643 q 1083 569 1054 603 q 1127 492 1111 536 q 1147 399 1143 447 l 685 399 m 578 335 q 607 199 582 261 q 492 106 557 142 q 349 71 428 71 q 281 81 313 71 q 225 109 249 90 q 188 154 201 128 q 174 215 174 181 q 226 324 174 285 q 378 364 279 364 q 488 355 438 364 q 578 335 538 346 z "},"ø":{"ha":897,"x_min":54,"x_max":844,"o":"m 824 360 q 800 495 824 432 q 733 607 776 558 l 844 726 l 736 726 l 674 658 q 572 714 629 694 q 450 733 515 733 q 299 703 368 733 q 181 622 231 674 q 103 502 131 571 q 75 357 75 433 q 99 224 75 286 q 164 111 122 161 l 54 -7 l 161 -7 l 224 57 q 326 3 269 22 q 447 -17 382 -17 q 597 13 528 -17 q 717 94 667 43 q 795 215 767 146 q 824 360 824 283 m 608 582 l 236 189 q 182 360 182 263 q 201 469 182 418 q 256 559 221 521 q 340 619 292 597 q 447 640 389 640 q 608 582 542 640 m 715 357 q 696 247 715 299 q 642 158 676 196 q 558 98 607 119 q 450 76 508 76 q 289 133 358 76 l 661 529 q 715 357 715 456 z "},"¿":{"ha":746,"x_min":67,"x_max":703,"o":"m 342 972 l 342 826 l 469 826 l 469 972 l 342 972 m 454 465 l 461 472 l 439 697 l 368 697 l 356 547 q 244 518 296 539 q 152 463 192 497 q 90 378 113 428 q 67 264 67 329 q 89 153 67 204 q 151 66 111 103 q 249 8 192 29 q 378 -12 307 -12 q 566 32 489 -12 q 703 149 643 76 l 632 217 q 518 120 579 154 q 381 86 457 86 q 296 100 333 86 q 232 139 258 114 q 192 197 206 164 q 178 268 178 231 q 248 410 178 357 q 454 465 318 463 z "},"¡":{"ha":376,"x_min":125,"x_max":253,"o":"m 125 972 l 125 826 l 253 826 l 253 972 l 125 972 m 251 0 l 251 79 l 218 697 l 158 697 l 126 79 l 126 0 l 251 0 z "},"√":{"ha":1386,"x_min":61,"x_max":1257,"o":"m 776 715 l 776 774 q 901 926 776 926 q 953 922 929 926 q 1004 908 976 917 l 1004 1001 q 951 1015 979 1011 q 886 1019 924 1019 q 726 958 782 1019 q 671 779 671 897 l 671 717 l 572 717 l 572 624 l 671 624 l 671 0 l 776 0 l 776 624 l 1003 624 l 1003 715 l 776 715 m 265 715 l 265 774 q 390 926 265 926 q 442 922 418 926 q 494 908 465 917 l 494 1001 q 441 1015 468 1011 q 376 1019 414 1019 q 216 958 272 1019 q 160 779 160 897 l 160 717 l 61 717 l 61 624 l 160 624 l 160 0 l 267 0 l 267 624 l 493 624 l 493 715 l 265 715 m 1257 0 l 1257 1014 l 1150 1014 l 1150 0 l 1257 0 z "},"ƒ":{"ha":714,"x_min":57,"x_max":664,"o":"m 664 872 l 664 964 q 613 976 639 972 q 551 979 588 979 q 405 930 456 979 q 335 776 354 881 l 303 611 l 151 611 l 151 518 l 288 518 l 226 190 q 189 110 215 135 q 118 85 163 85 q 57 90 83 85 l 57 -1 q 89 -6 72 -4 q 129 -7 106 -7 q 268 38 218 -7 q 336 179 318 82 l 399 518 l 615 518 l 615 611 l 415 611 l 443 761 q 485 857 456 828 q 568 886 514 886 q 615 883 590 886 q 664 872 639 879 z "},"≈":{"ha":1386,"x_min":61,"x_max":1264,"o":"m 1264 875 l 1264 993 l 1143 993 l 1143 875 l 1264 875 m 776 715 l 776 774 q 901 926 776 926 q 953 922 929 926 q 1004 908 976 917 l 1004 1001 q 951 1015 979 1011 q 886 1019 924 1019 q 726 958 782 1019 q 671 779 671 897 l 671 717 l 572 717 l 572 624 l 671 624 l 671 0 l 776 0 l 776 624 l 1003 624 l 1003 715 l 776 715 m 265 715 l 265 774 q 390 926 265 926 q 442 922 418 926 q 494 908 465 917 l 494 1001 q 441 1015 468 1011 q 376 1019 414 1019 q 216 958 272 1019 q 160 779 160 897 l 160 717 l 61 717 l 61 624 l 160 624 l 160 0 l 267 0 l 267 624 l 493 624 l 493 715 l 265 715 m 1257 0 l 1257 718 l 1150 718 l 1150 0 l 1257 0 z "},"«":{"ha":764,"x_min":67,"x_max":682,"o":"m 601 661 l 376 365 l 376 354 l 601 57 l 682 104 l 494 361 l 682 615 l 601 661 m 292 661 l 67 365 l 67 354 l 292 57 l 374 104 l 186 361 l 374 615 l 292 661 z "},"»":{"ha":764,"x_min":82,"x_max":697,"o":"m 472 57 l 697 354 l 697 365 l 472 661 l 390 614 l 578 358 l 390 103 l 472 57 m 163 57 l 388 354 l 388 365 l 163 661 l 82 614 l 269 358 l 82 103 l 163 57 z "},"…":{"ha":1004,"x_min":107,"x_max":899,"o":"m 899 0 l 899 143 l 774 143 l 774 0 l 899 0 m 564 0 l 564 143 l 440 143 l 440 0 l 564 0 m 231 0 l 231 143 l 107 143 l 107 0 l 231 0 z "}," ":{"ha":417,"x_min":0,"x_max":0,"o":""},"À":{"ha":1097,"x_min":54,"x_max":1043,"o":"m 600 979 l 497 979 l 54 0 l 167 0 l 282 257 l 811 257 l 925 0 l 1043 0 l 600 979 m 768 356 l 325 356 l 547 851 l 768 356 m 504 1058 l 590 1058 l 458 1260 l 347 1208 l 504 1058 z "},"Ã":{"ha":1097,"x_min":54,"x_max":1043,"o":"m 600 979 l 497 979 l 54 0 l 167 0 l 282 257 l 811 257 l 925 0 l 1043 0 l 600 979 m 768 356 l 325 356 l 547 851 l 768 356 m 776 1204 l 711 1222 q 681 1169 696 1185 q 639 1154 667 1154 q 599 1163 621 1154 q 551 1181 576 1171 q 501 1201 526 1192 q 453 1210 476 1210 q 372 1176 403 1210 q 321 1064 342 1143 l 386 1046 q 416 1099 401 1083 q 458 1114 431 1114 q 499 1105 476 1114 q 546 1085 521 1096 q 596 1067 571 1075 q 644 1058 621 1058 q 725 1092 694 1058 q 776 1204 756 1125 z "},"Õ":{"ha":1181,"x_min":94,"x_max":1086,"o":"m 1086 488 q 1051 680 1086 589 q 950 840 1015 771 q 794 949 885 908 q 592 989 703 989 q 389 948 481 989 q 232 838 297 907 q 131 677 167 768 q 94 485 94 586 q 130 292 94 383 q 231 133 165 201 q 387 24 296 64 q 589 -17 478 -17 q 792 24 700 -17 q 949 135 883 65 q 1050 295 1014 204 q 1086 488 1086 386 m 972 485 q 944 328 972 401 q 865 201 915 256 q 745 116 815 147 q 592 85 675 85 q 438 117 508 85 q 317 203 368 149 q 237 331 265 257 q 208 488 208 404 q 237 644 208 571 q 315 771 265 717 q 435 856 365 825 q 589 888 506 888 q 742 856 672 888 q 864 769 813 824 q 944 642 915 715 q 972 485 972 568 m 818 1204 l 753 1222 q 723 1169 738 1185 q 681 1154 708 1154 q 640 1163 663 1154 q 593 1181 618 1171 q 543 1201 568 1192 q 494 1210 518 1210 q 414 1176 444 1210 q 363 1064 383 1143 l 428 1046 q 458 1099 443 1083 q 500 1114 472 1114 q 540 1105 518 1114 q 588 1085 563 1096 q 638 1067 613 1075 q 686 1058 663 1058 q 767 1092 736 1058 q 818 1204 797 1125 z "},"Œ":{"ha":1571,"x_min":94,"x_max":1488,"o":"m 1488 0 l 1488 100 l 913 100 l 913 440 l 1418 440 l 1418 540 l 913 540 l 913 872 l 1481 872 l 1481 972 l 611 972 q 401 935 496 972 q 238 831 307 897 q 132 676 169 765 q 94 485 94 588 q 132 293 94 382 q 238 139 169 204 q 401 37 307 74 q 611 0 496 0 l 1488 0 m 803 101 l 611 101 q 444 131 519 101 q 317 213 369 161 q 237 335 265 265 q 208 488 208 406 q 237 638 208 568 q 317 760 265 708 q 444 842 369 813 q 611 871 519 871 l 803 871 l 803 101 z "},"œ":{"ha":1457,"x_min":75,"x_max":1389,"o":"m 761 178 q 887 35 804 86 q 1069 -17 969 -17 q 1241 20 1171 -17 q 1364 118 1311 57 l 1297 178 q 1199 104 1253 132 q 1071 76 1146 76 q 981 92 1024 76 q 903 140 938 108 q 847 216 869 171 q 819 319 825 261 l 1388 319 q 1389 338 1389 329 q 1389 353 1389 346 q 1367 501 1389 432 q 1301 622 1344 571 q 1197 703 1258 674 q 1057 733 1136 733 q 880 681 957 733 q 763 540 803 628 q 636 680 718 626 q 447 733 554 733 q 300 703 368 733 q 182 622 232 674 q 103 502 132 571 q 75 357 75 433 q 103 213 75 281 q 181 94 132 144 q 298 13 231 43 q 443 -17 365 -17 q 634 38 551 -17 q 761 178 717 92 m 818 399 q 843 496 824 451 q 893 573 863 540 q 965 624 924 606 q 1053 643 1006 643 q 1147 623 1106 643 q 1216 569 1188 603 q 1260 492 1244 536 q 1281 399 1276 447 l 818 399 m 710 357 q 690 248 710 299 q 637 160 671 197 q 555 101 603 122 q 449 79 507 79 q 344 101 392 79 q 260 161 296 124 q 205 250 225 199 q 185 360 185 301 q 204 469 185 418 q 258 558 224 519 q 340 617 292 596 q 446 639 388 639 q 550 617 501 639 q 634 556 599 594 q 690 467 669 518 q 710 357 710 415 z "},"–":{"ha":733,"x_min":90,"x_max":643,"o":"m 643 364 l 643 471 l 90 471 l 90 364 l 643 364 z "},"—":{"ha":1247,"x_min":90,"x_max":1157,"o":"m 1157 364 l 1157 471 l 90 471 l 90 364 l 1157 364 z "},"“":{"ha":618,"x_min":100,"x_max":547,"o":"m 547 931 l 531 979 q 415 917 451 961 q 378 789 378 874 l 378 664 l 504 664 l 504 810 l 454 810 q 473 883 451 854 q 547 931 494 911 m 269 931 l 253 979 q 137 917 174 961 q 100 789 100 874 l 100 664 l 228 664 l 228 810 l 176 810 q 195 883 174 854 q 269 931 217 911 z "},"”":{"ha":618,"x_min":71,"x_max":518,"o":"m 349 706 l 365 657 q 481 719 444 675 q 518 847 518 763 l 518 972 l 392 972 l 392 826 l 442 826 q 424 753 446 782 q 349 706 401 725 m 71 706 l 88 657 q 204 719 167 675 q 242 847 242 763 l 242 972 l 114 972 l 114 826 l 164 826 q 146 753 168 782 q 71 706 124 725 z "},"‘":{"ha":340,"x_min":100,"x_max":269,"o":"m 269 931 l 253 979 q 137 917 174 961 q 100 789 100 874 l 100 664 l 228 664 l 228 810 l 176 810 q 195 883 174 854 q 269 931 217 911 z "},"’":{"ha":340,"x_min":71,"x_max":242,"o":"m 71 706 l 88 657 q 204 719 167 675 q 242 847 242 763 l 242 972 l 114 972 l 114 826 l 164 826 q 146 753 168 782 q 71 706 124 725 z "},"ÿ":{"ha":821,"x_min":47,"x_max":771,"o":"m 771 718 l 657 718 l 426 119 l 165 718 l 47 718 l 374 3 q 308 -103 342 -74 q 226 -132 275 -132 q 166 -126 192 -132 q 114 -106 140 -119 l 78 -190 q 150 -217 114 -208 q 231 -226 186 -226 q 367 -181 311 -226 q 469 -24 424 -135 l 771 718 m 596 826 l 596 958 l 471 958 l 471 826 l 596 826 m 351 826 l 351 958 l 226 958 l 226 826 l 351 826 z "},"Ÿ":{"ha":994,"x_min":38,"x_max":957,"o":"m 553 386 l 957 972 l 829 972 l 499 486 l 171 972 l 38 972 l 442 385 l 442 0 l 553 0 l 553 386 m 682 1054 l 682 1186 l 557 1186 l 557 1054 l 682 1054 m 438 1054 l 438 1186 l 313 1186 l 313 1054 l 438 1054 z "},"¤":{"ha":1000,"x_min":78,"x_max":928,"o":"m 193 567 q 189 526 190 547 q 188 485 188 506 q 188 450 188 467 q 190 417 188 433 l 78 417 l 78 329 l 204 329 q 258 188 222 251 q 345 79 294 125 q 460 8 396 33 q 597 -17 524 -17 q 704 -1 656 -17 q 793 41 753 14 q 866 106 833 68 q 928 186 899 143 l 849 242 q 741 125 799 168 q 601 82 683 82 q 423 149 497 82 q 318 329 349 217 l 678 329 l 678 417 l 300 417 q 298 451 299 435 q 297 488 297 468 q 299 527 297 507 q 303 567 300 547 l 678 567 l 678 653 l 321 653 q 423 824 353 758 q 586 890 493 890 q 666 881 631 890 q 732 851 701 871 q 789 803 763 832 q 842 739 815 775 l 925 799 q 865 875 897 840 q 792 935 832 910 q 701 974 751 960 q 590 989 651 989 q 458 964 519 989 q 349 894 397 939 q 264 787 300 849 q 208 653 228 725 l 78 653 l 78 567 l 193 567 z "},"‹":{"ha":456,"x_min":67,"x_max":374,"o":"m 292 661 l 67 365 l 67 354 l 292 57 l 374 104 l 186 361 l 374 615 l 292 661 z "},"›":{"ha":456,"x_min":82,"x_max":388,"o":"m 163 57 l 388 354 l 388 365 l 163 661 l 82 614 l 269 358 l 82 103 l 163 57 z "},"ﬁ":{"ha":876,"x_min":61,"x_max":754,"o":"m 754 875 l 754 993 l 632 993 l 632 875 l 754 875 m 265 715 l 265 774 q 390 926 265 926 q 442 922 418 926 q 494 908 465 917 l 494 1001 q 441 1015 468 1011 q 376 1019 414 1019 q 216 958 272 1019 q 160 779 160 897 l 160 717 l 61 717 l 61 624 l 160 624 l 160 0 l 267 0 l 267 624 l 493 624 l 493 715 l 265 715 m 746 0 l 746 718 l 640 718 l 640 0 l 746 0 z "},"ﬂ":{"ha":876,"x_min":61,"x_max":746,"o":"m 265 715 l 265 774 q 390 926 265 926 q 442 922 418 926 q 494 908 465 917 l 494 1001 q 441 1015 468 1011 q 376 1019 414 1019 q 216 958 272 1019 q 160 779 160 897 l 160 717 l 61 717 l 61 624 l 160 624 l 160 0 l 267 0 l 267 624 l 493 624 l 493 715 l 265 715 m 746 0 l 746 1014 l 640 1014 l 640 0 l 746 0 z "},"‡":{"ha":597,"x_min":97,"x_max":500,"o":"m 500 185 l 500 261 l 328 250 l 336 486 l 328 722 l 500 711 l 500 788 l 329 776 l 342 972 l 256 972 l 268 776 l 97 788 l 97 711 l 269 722 l 261 486 l 269 250 l 97 261 l 97 185 l 268 196 l 256 0 l 342 0 l 329 196 l 500 185 z "},"·":{"ha":340,"x_min":107,"x_max":235,"o":"m 235 344 l 235 490 l 107 490 l 107 344 l 235 344 z "},"‚":{"ha":340,"x_min":64,"x_max":235,"o":"m 64 -121 l 81 -169 q 197 -108 160 -151 q 235 21 235 -64 l 235 146 l 107 146 l 107 0 l 157 0 q 139 -73 161 -44 q 64 -121 117 -101 z "},"„":{"ha":618,"x_min":64,"x_max":511,"o":"m 342 -121 l 358 -169 q 474 -108 438 -151 q 511 21 511 -64 l 511 146 l 385 146 l 385 0 l 435 0 q 417 -73 439 -44 q 342 -121 394 -101 m 64 -121 l 81 -169 q 197 -108 160 -151 q 235 21 235 -64 l 235 146 l 107 146 l 107 0 l 157 0 q 139 -73 161 -44 q 64 -121 117 -101 z "},"‰":{"ha":1682,"x_min":72,"x_max":1608,"o":"m 513 736 q 497 831 513 786 q 452 909 481 875 q 383 963 424 943 q 294 983 343 983 q 203 963 244 983 q 133 908 163 943 q 88 828 104 874 q 72 733 72 783 q 88 639 72 683 q 133 560 104 594 q 201 506 161 526 q 292 486 242 486 q 382 506 342 486 q 451 561 422 526 q 497 641 481 596 q 513 736 513 686 m 886 972 l 172 0 l 272 0 l 985 972 l 886 972 m 1608 239 q 1593 333 1608 289 q 1549 412 1578 378 q 1481 466 1521 446 q 1390 486 1440 486 q 1300 466 1340 486 q 1231 411 1260 446 q 1185 331 1201 376 q 1169 236 1169 286 q 1185 142 1169 186 q 1230 63 1201 97 q 1299 9 1258 29 q 1388 -11 1339 -11 q 1478 9 1438 -11 q 1548 64 1519 29 q 1592 144 1576 99 q 1608 239 1608 189 m 1085 239 q 1069 333 1085 289 q 1026 412 1054 378 q 957 466 997 446 q 867 486 917 486 q 776 466 817 486 q 707 411 736 446 q 662 331 678 376 q 646 236 646 286 q 662 142 646 186 q 706 63 678 97 q 775 9 735 29 q 864 -11 815 -11 q 955 9 914 -11 q 1024 64 996 29 q 1069 144 1053 99 q 1085 239 1085 189 m 421 733 q 412 667 421 697 q 386 613 403 636 q 346 577 369 590 q 294 564 322 564 q 244 577 267 564 q 203 613 221 590 q 175 667 185 636 q 165 736 165 699 q 174 802 165 771 q 200 856 183 833 q 240 892 217 879 q 292 906 263 906 q 342 892 318 906 q 383 856 365 879 q 410 802 400 833 q 421 733 421 771 m 1517 236 q 1508 169 1517 200 q 1482 116 1499 139 q 1442 80 1465 93 q 1390 67 1419 67 q 1340 80 1363 67 q 1299 116 1317 93 q 1271 170 1281 139 q 1261 239 1261 201 q 1270 305 1261 274 q 1296 359 1279 336 q 1336 395 1313 382 q 1388 408 1360 408 q 1438 395 1414 408 q 1479 359 1461 382 q 1507 305 1497 336 q 1517 236 1517 274 m 993 236 q 984 169 993 200 q 958 116 975 139 q 919 80 942 93 q 867 67 896 67 q 816 80 839 67 q 775 116 793 93 q 747 170 757 139 q 738 239 738 201 q 747 305 738 274 q 772 359 756 336 q 813 395 789 382 q 864 408 836 408 q 914 395 890 408 q 956 359 938 382 q 983 305 974 336 q 993 236 993 274 z "},"Â":{"ha":1097,"x_min":54,"x_max":1043,"o":"m 600 979 l 497 979 l 54 0 l 167 0 l 282 257 l 811 257 l 925 0 l 1043 0 l 600 979 m 768 356 l 325 356 l 547 851 l 768 356 m 547 1147 l 651 1054 l 743 1054 l 596 1236 l 501 1236 l 354 1054 l 443 1054 l 547 1147 z "},"Ê":{"ha":931,"x_min":138,"x_max":847,"o":"m 840 972 l 138 972 l 138 0 l 847 0 l 847 100 l 247 100 l 247 440 l 778 440 l 778 540 l 247 540 l 247 872 l 840 872 l 840 972 m 482 1151 l 586 1058 l 678 1058 l 531 1240 l 436 1240 l 289 1058 l 378 1058 l 482 1151 z "},"Á":{"ha":1097,"x_min":54,"x_max":1043,"o":"m 600 979 l 497 979 l 54 0 l 167 0 l 282 257 l 811 257 l 925 0 l 1043 0 l 600 979 m 768 356 l 325 356 l 547 851 l 768 356 m 593 1058 l 750 1208 l 639 1260 l 507 1058 l 593 1058 z "},"Ë":{"ha":931,"x_min":138,"x_max":847,"o":"m 840 972 l 138 972 l 138 0 l 847 0 l 847 100 l 247 100 l 247 440 l 778 440 l 778 540 l 247 540 l 247 872 l 840 872 l 840 972 m 668 1058 l 668 1190 l 543 1190 l 543 1058 l 668 1058 m 424 1058 l 424 1190 l 299 1190 l 299 1058 l 424 1058 z "},"È":{"ha":931,"x_min":138,"x_max":847,"o":"m 840 972 l 138 972 l 138 0 l 847 0 l 847 100 l 247 100 l 247 440 l 778 440 l 778 540 l 247 540 l 247 872 l 840 872 l 840 972 m 472 1058 l 558 1058 l 426 1260 l 315 1208 l 472 1058 z "},"Í":{"ha":404,"x_min":147,"x_max":403,"o":"m 147 972 l 147 0 l 257 0 l 257 972 l 147 972 m 246 1058 l 403 1208 l 292 1260 l 160 1058 l 246 1058 z "},"Î":{"ha":404,"x_min":147,"x_max":538,"o":"m 147 972 l 147 0 l 257 0 l 257 972 l 147 972 m 342 1151 l 446 1058 l 538 1058 l 390 1240 l 296 1240 l 149 1058 l 238 1058 l 342 1151 z "},"Ï":{"ha":404,"x_min":147,"x_max":518,"o":"m 147 972 l 147 0 l 257 0 l 257 972 l 147 972 m 518 1058 l 518 1190 l 393 1190 l 393 1058 l 518 1058 m 274 1058 l 274 1190 l 149 1190 l 149 1058 l 274 1058 z "},"Ì":{"ha":404,"x_min":147,"x_max":392,"o":"m 147 972 l 147 0 l 257 0 l 257 972 l 147 972 m 306 1058 l 392 1058 l 260 1260 l 149 1208 l 306 1058 z "},"Ó":{"ha":1181,"x_min":94,"x_max":1086,"o":"m 1086 488 q 1051 680 1086 589 q 950 840 1015 771 q 794 949 885 908 q 592 989 703 989 q 389 948 481 989 q 232 838 297 907 q 131 677 167 768 q 94 485 94 586 q 130 292 94 383 q 231 133 165 201 q 387 24 296 64 q 589 -17 478 -17 q 792 24 700 -17 q 949 135 883 65 q 1050 295 1014 204 q 1086 488 1086 386 m 972 485 q 944 328 972 401 q 865 201 915 256 q 745 116 815 147 q 592 85 675 85 q 438 117 508 85 q 317 203 368 149 q 237 331 265 257 q 208 488 208 404 q 237 644 208 571 q 315 771 265 717 q 435 856 365 825 q 589 888 506 888 q 742 856 672 888 q 864 769 813 824 q 944 642 915 715 q 972 485 972 568 m 640 1058 l 797 1208 l 686 1260 l 554 1058 l 640 1058 z "},"Ô":{"ha":1181,"x_min":94,"x_max":1086,"o":"m 1086 488 q 1051 680 1086 589 q 950 840 1015 771 q 794 949 885 908 q 592 989 703 989 q 389 948 481 989 q 232 838 297 907 q 131 677 167 768 q 94 485 94 586 q 130 292 94 383 q 231 133 165 201 q 387 24 296 64 q 589 -17 478 -17 q 792 24 700 -17 q 949 135 883 65 q 1050 295 1014 204 q 1086 488 1086 386 m 972 485 q 944 328 972 401 q 865 201 915 256 q 745 116 815 147 q 592 85 675 85 q 438 117 508 85 q 317 203 368 149 q 237 331 265 257 q 208 488 208 404 q 237 644 208 571 q 315 771 265 717 q 435 856 365 825 q 589 888 506 888 q 742 856 672 888 q 864 769 813 824 q 944 642 915 715 q 972 485 972 568 m 589 1151 l 693 1058 l 785 1058 l 638 1240 l 543 1240 l 396 1058 l 485 1058 l 589 1151 z "},"":{"ha":1343,"x_min":140,"x_max":1206,"o":"m 1206 0 l 1206 1042 l 140 1042 l 140 0 l 1206 0 m 1193 -144 l 1185 -97 l 1183 -97 l 1165 -133 l 1147 -97 l 1146 -97 l 1138 -144 l 1146 -144 l 1150 -117 l 1164 -146 l 1167 -146 l 1181 -117 l 1185 -144 l 1193 -144 m 1119 -121 q 1113 -104 1119 -111 q 1097 -97 1107 -97 q 1079 -104 1086 -97 q 1072 -122 1072 -111 q 1078 -139 1072 -132 q 1096 -146 1085 -146 q 1113 -139 1107 -146 q 1119 -121 1119 -132 m 1053 -133 q 1039 -139 1044 -139 q 1021 -121 1021 -139 q 1026 -109 1021 -114 q 1038 -104 1031 -104 q 1050 -108 1046 -104 l 1053 -101 q 1038 -97 1046 -97 q 1019 -104 1026 -97 q 1013 -122 1013 -111 q 1038 -146 1013 -146 q 1051 -142 1047 -146 l 1053 -133 m 975 -99 l 965 -99 l 953 -118 l 938 -97 l 929 -99 l 949 -125 l 949 -144 l 957 -144 l 957 -125 l 975 -99 m 911 -144 l 911 -99 l 903 -99 l 903 -117 l 881 -117 l 881 -99 l 872 -99 l 872 -144 l 881 -144 l 881 -124 l 903 -124 l 903 -144 l 911 -144 m 850 -114 q 844 -101 850 -107 q 818 -99 838 -96 l 818 -144 l 826 -144 l 826 -131 q 850 -114 850 -131 m 800 -144 l 778 -97 l 775 -97 l 754 -144 l 763 -144 l 767 -133 l 786 -133 l 792 -144 l 800 -144 m 742 -144 l 728 -126 q 738 -112 738 -122 q 731 -101 738 -106 q 706 -99 725 -96 l 706 -144 l 714 -144 l 714 -129 l 721 -129 l 732 -144 l 742 -144 m 682 -140 l 682 -119 l 661 -119 l 661 -126 l 674 -126 l 674 -136 q 665 -139 668 -139 q 647 -122 647 -139 q 664 -104 647 -104 q 679 -110 674 -104 l 682 -103 q 665 -97 674 -97 q 647 -104 654 -97 q 639 -122 639 -111 q 646 -140 639 -133 q 664 -146 653 -146 q 682 -140 674 -146 m 621 -121 q 615 -104 621 -111 q 599 -97 608 -97 q 581 -104 588 -97 q 574 -122 574 -111 q 580 -139 574 -132 q 597 -146 586 -146 q 615 -139 608 -146 q 621 -121 621 -132 m 556 -114 q 549 -101 556 -107 q 524 -99 543 -96 l 524 -144 l 532 -144 l 532 -131 q 556 -114 556 -131 m 506 -99 l 496 -99 l 483 -118 l 468 -97 l 460 -99 l 479 -125 l 479 -144 l 488 -144 l 488 -125 l 506 -99 m 449 -99 l 407 -99 l 407 -106 l 424 -106 l 424 -144 l 432 -144 l 432 -106 l 449 -106 l 449 -99 m 371 -99 l 363 -99 l 353 -129 l 339 -97 l 338 -97 l 324 -129 l 314 -97 l 306 -99 l 322 -146 l 324 -146 l 338 -114 l 353 -146 l 354 -146 l 371 -99 m 293 -99 l 285 -99 l 275 -129 l 261 -97 l 260 -97 l 246 -129 l 236 -97 l 228 -99 l 244 -146 l 246 -146 l 260 -114 l 275 -146 l 276 -146 l 293 -99 m 215 -99 l 207 -99 l 197 -129 l 183 -97 l 182 -97 l 168 -129 l 158 -97 l 150 -99 l 167 -146 l 168 -146 l 182 -114 l 197 -146 l 199 -146 l 215 -99 m 994 -140 q 989 -135 994 -135 q 983 -140 983 -135 q 989 -146 983 -146 q 994 -140 994 -146 m 394 -140 q 389 -135 394 -135 q 383 -140 383 -135 q 389 -146 383 -146 q 394 -140 394 -146 m 776 953 l 774 953 q 770 959 774 953 q 760 965 767 965 q 756 961 756 965 l 756 929 q 758 922 756 922 q 763 922 763 922 l 763 919 l 739 919 l 739 922 q 742 922 739 922 q 746 929 746 922 l 746 961 q 742 965 746 965 q 731 959 735 965 q 728 953 728 953 l 725 953 q 726 959 725 953 q 726 969 726 965 q 751 968 731 968 q 775 969 772 968 q 776 958 776 965 q 776 953 776 953 m 700 919 l 675 919 l 675 922 q 678 922 675 922 q 682 929 682 922 l 682 943 l 658 943 l 658 929 q 662 923 658 924 q 665 922 665 922 l 665 919 l 642 919 l 642 922 q 645 923 642 922 q 649 929 649 924 l 649 958 q 644 965 649 965 q 642 965 642 965 l 642 968 l 665 968 l 665 967 l 665 965 q 661 965 665 965 q 658 958 658 965 l 658 946 l 682 946 l 682 958 q 678 965 682 965 q 675 965 675 965 l 675 967 l 675 968 l 700 968 l 700 965 q 696 965 700 965 q 692 958 692 965 l 692 929 q 696 922 692 922 q 700 922 700 922 l 700 919 m 610 922 l 610 919 l 568 919 l 565 935 l 568 936 q 572 930 568 936 q 582 924 575 924 l 588 924 q 593 928 593 924 l 593 943 l 588 943 q 580 939 581 943 q 579 935 579 935 l 576 935 l 576 953 l 579 953 q 580 949 579 953 q 588 946 581 946 l 593 946 l 593 960 q 588 964 593 964 l 582 964 q 572 958 575 964 q 569 953 569 953 l 567 954 l 569 968 l 610 968 l 610 965 q 606 965 610 965 q 603 958 603 965 l 603 929 q 606 922 603 922 q 610 922 610 922 m 1149 858 l 197 858 l 197 867 l 1149 867 l 1149 858 m 967 750 q 956 726 967 733 q 935 719 944 719 q 899 735 915 719 q 883 772 883 750 q 894 796 883 789 q 915 803 906 803 q 951 787 935 803 q 967 750 967 771 m 818 746 q 810 727 818 735 q 783 719 801 719 q 761 738 761 719 q 774 751 761 751 q 783 744 783 751 q 778 738 783 738 q 774 739 775 738 q 771 740 772 740 q 767 736 767 740 q 783 724 767 724 q 800 743 800 724 q 792 764 800 757 q 776 757 785 757 q 765 765 765 757 q 788 774 765 776 q 790 782 790 776 q 776 799 790 799 q 767 792 767 799 q 769 788 767 789 q 771 783 771 788 q 765 779 771 779 q 758 788 758 779 q 776 803 758 803 q 799 796 792 803 q 806 782 806 789 q 799 769 806 774 q 818 746 818 763 m 410 746 q 401 727 410 735 q 375 719 393 719 q 353 738 353 719 q 365 751 353 751 q 375 744 375 751 q 369 738 375 738 q 365 739 367 738 q 363 740 364 740 q 358 736 358 740 q 375 724 358 724 q 392 743 392 724 q 383 764 392 757 q 368 757 376 757 q 357 765 357 757 q 379 774 357 776 q 382 782 382 776 q 368 799 382 799 q 358 792 358 799 q 360 788 358 789 q 363 783 363 788 q 357 779 363 779 q 350 788 350 779 q 368 803 350 803 q 390 796 383 803 q 397 782 397 789 q 390 769 397 774 q 410 746 410 763 m 1139 725 l 1140 721 l 1100 721 l 1099 725 q 1105 726 1099 725 q 1108 736 1111 726 l 1104 758 l 1071 758 l 1075 736 q 1083 726 1078 726 q 1089 725 1089 725 l 1090 721 l 1050 721 l 1049 725 q 1055 726 1049 725 q 1058 736 1061 726 l 1049 785 q 1040 795 1046 794 q 1035 796 1035 796 l 1033 800 l 1074 800 l 1075 796 q 1069 795 1075 796 q 1065 785 1063 794 l 1069 764 l 1103 764 l 1099 785 q 1091 795 1096 794 q 1086 796 1086 796 l 1085 800 l 1124 800 l 1125 796 q 1119 795 1125 796 q 1115 785 1113 794 l 1125 736 q 1133 726 1128 726 q 1139 725 1139 725 m 692 721 l 651 721 l 650 725 q 656 726 650 725 q 660 736 663 726 l 656 760 l 650 760 q 640 752 640 760 q 639 744 639 744 l 635 744 l 628 776 l 632 776 q 635 770 632 776 q 649 764 639 764 l 654 764 l 650 786 q 642 794 649 794 l 636 794 q 619 785 621 794 q 618 776 618 776 l 613 776 q 613 786 613 776 q 613 800 614 796 l 675 800 l 676 796 q 670 795 676 796 q 667 785 664 794 l 676 736 q 685 726 679 726 q 690 725 690 725 l 692 721 m 281 725 l 282 721 l 242 721 l 240 725 q 247 726 240 725 q 250 736 253 726 l 246 757 q 239 753 240 757 l 222 721 l 196 721 l 194 725 q 201 726 194 725 q 214 736 208 726 l 226 758 q 208 765 215 760 q 200 779 200 771 q 228 800 200 800 l 265 800 l 267 796 q 260 795 267 796 q 257 785 254 794 l 267 736 q 275 726 269 726 q 281 725 281 725 m 556 724 q 550 719 556 719 q 533 729 538 719 q 519 720 522 729 q 499 711 517 711 q 485 716 492 711 q 478 728 478 721 q 485 738 478 738 q 492 731 492 738 q 490 727 492 728 q 489 724 489 726 q 496 718 489 718 q 508 727 503 718 q 528 736 513 736 q 516 755 519 744 q 511 775 513 765 q 508 792 510 785 q 499 799 506 799 q 492 790 492 799 q 486 782 492 782 q 479 789 479 782 q 485 798 479 793 q 497 803 490 803 q 520 794 514 803 q 528 773 526 785 q 531 751 531 761 q 538 736 532 740 q 551 731 547 735 q 556 724 556 726 m 1149 660 l 197 660 l 197 668 l 1149 668 l 1149 660 m 1149 525 l 1099 525 l 1099 564 l 1083 564 l 1083 474 l 1103 474 l 1103 428 l 990 428 l 990 474 l 1010 474 l 1010 564 l 994 564 l 994 525 l 944 525 l 944 611 l 1149 611 l 1149 525 m 900 564 l 881 564 l 829 501 l 829 474 l 850 474 l 850 428 l 738 428 l 738 474 l 757 474 l 757 500 l 706 564 l 689 564 l 689 611 l 775 611 l 775 564 l 761 564 l 782 532 l 803 564 l 788 564 l 788 611 l 900 611 l 900 564 m 636 428 l 524 428 l 524 474 l 544 474 l 544 500 l 503 500 q 455 516 472 500 q 438 556 438 532 q 455 595 438 579 q 503 611 472 611 l 636 611 l 636 564 l 617 564 l 617 474 l 636 474 l 636 428 m 393 428 l 197 428 l 197 513 l 254 513 l 254 474 l 300 474 l 300 503 l 267 503 l 267 536 l 300 536 l 300 564 l 254 564 l 254 525 l 197 525 l 197 611 l 393 611 l 393 564 l 374 564 l 374 474 l 393 474 l 393 428 m 1149 376 l 197 376 l 197 385 l 1149 385 l 1149 376 m 1011 267 q 1000 243 1011 250 q 979 236 989 236 q 944 251 960 236 q 928 289 928 267 q 939 313 928 306 q 960 319 950 319 q 995 303 979 319 q 1011 267 1011 288 m 282 301 l 279 299 q 273 305 276 301 q 263 308 269 308 q 250 290 250 308 q 257 256 250 279 q 265 244 260 244 q 271 243 271 243 l 272 238 l 233 238 l 232 243 q 238 244 232 243 q 240 264 244 246 q 228 295 236 281 q 207 310 221 310 q 196 301 196 310 l 192 303 q 197 315 192 311 q 208 319 201 319 q 226 310 219 319 q 238 288 233 301 q 257 319 236 319 q 273 314 268 319 q 282 301 278 308 m 1143 238 l 1103 238 l 1101 242 q 1108 242 1101 242 q 1111 253 1114 243 l 1107 276 l 1101 276 q 1091 269 1092 276 q 1090 261 1090 261 l 1086 261 l 1079 293 l 1083 293 q 1087 287 1083 293 q 1100 281 1090 281 l 1106 281 l 1101 303 q 1093 311 1100 311 l 1088 311 q 1071 302 1072 311 q 1069 293 1069 293 l 1064 293 q 1065 303 1064 293 q 1064 317 1065 313 l 1126 317 l 1128 313 q 1122 312 1128 313 q 1118 301 1115 311 l 1128 253 q 1136 242 1131 243 q 1142 242 1142 242 l 1143 238 m 863 313 q 856 312 863 313 q 851 300 849 311 l 858 269 q 858 247 861 258 q 832 236 856 236 q 804 249 813 236 q 793 274 796 263 l 788 300 q 778 312 785 311 q 772 313 772 313 l 771 317 l 804 317 l 804 313 q 798 312 804 313 q 794 300 792 311 l 800 274 q 810 252 803 261 q 828 243 817 243 q 844 250 843 243 q 843 271 846 257 l 836 300 q 828 312 833 311 q 822 313 822 313 l 821 317 l 861 317 l 863 313 m 725 242 l 726 238 l 697 238 l 696 242 q 701 243 696 242 q 704 256 707 244 l 696 297 l 654 236 l 650 238 l 639 300 q 631 311 636 310 q 626 313 626 313 l 625 317 l 654 317 l 656 313 q 649 311 656 313 q 646 300 643 310 l 653 258 l 693 317 l 713 317 l 714 313 q 707 312 714 313 q 703 300 700 311 l 713 256 q 720 243 715 244 q 725 242 725 242 m 575 238 l 531 238 q 497 251 513 238 q 482 286 482 264 q 493 309 482 301 q 517 317 504 317 l 558 317 l 560 313 q 549 299 544 311 l 560 256 q 568 244 563 244 q 574 243 574 243 l 575 238 m 425 242 l 426 238 l 386 238 l 385 242 q 391 242 385 242 q 394 253 397 243 l 390 274 q 383 269 385 274 l 367 238 l 340 238 l 339 242 q 346 242 339 242 q 358 253 353 243 l 371 275 q 352 282 360 276 q 344 296 344 288 q 372 317 344 317 l 410 317 l 411 313 q 405 312 411 313 q 401 301 399 311 l 411 253 q 419 242 414 243 q 425 242 425 242 m 1149 176 l 197 176 l 197 185 l 1149 185 l 1149 176 m 964 64 l 944 64 l 944 67 q 948 68 944 67 q 951 74 951 69 l 951 101 l 917 63 l 913 63 l 913 101 q 908 108 913 107 q 904 110 904 110 l 904 113 l 925 113 l 925 110 q 921 108 925 110 q 917 101 917 107 l 917 76 l 950 113 l 964 113 l 964 110 q 960 107 964 110 q 956 101 956 104 l 956 74 q 960 68 956 69 q 964 67 964 67 l 964 64 m 879 67 l 879 64 l 838 64 l 835 79 l 838 81 q 841 74 838 81 q 851 68 844 68 l 857 68 q 863 72 863 68 l 863 88 l 857 88 q 849 83 850 88 q 849 79 849 79 l 846 79 l 846 97 l 849 97 q 849 94 849 97 q 857 90 850 90 l 863 90 l 863 104 q 857 108 863 108 l 851 108 q 842 103 844 108 q 839 97 839 97 l 836 99 l 839 113 l 879 113 l 879 110 q 875 110 879 110 q 872 103 872 110 l 872 74 q 875 67 872 67 q 879 67 879 67 m 810 113 l 810 110 q 806 109 810 110 q 800 101 803 108 l 783 64 l 782 64 l 769 86 l 758 64 q 758 63 758 63 q 757 64 757 64 l 756 64 l 738 101 q 732 108 735 107 q 729 110 729 110 l 729 113 l 747 113 l 747 110 q 744 108 747 110 q 744 101 742 107 l 756 76 l 765 94 l 761 101 q 754 109 757 108 q 751 110 751 110 l 750 113 l 786 113 l 786 110 q 783 108 786 110 q 778 101 781 106 l 772 90 l 779 76 l 792 103 q 792 108 794 107 q 789 110 789 110 l 789 113 l 810 113 m 667 110 q 663 109 667 110 q 657 103 660 108 l 646 86 l 646 75 q 649 67 646 68 q 653 67 653 67 l 653 64 l 629 64 l 629 67 q 633 67 629 67 q 636 75 636 68 l 636 86 l 625 103 q 618 109 622 108 q 614 110 614 110 l 614 113 l 635 113 l 635 110 q 631 109 635 110 q 631 103 628 108 l 639 90 l 647 103 q 648 109 650 108 q 646 110 646 110 l 646 113 l 667 113 l 667 110 m 590 89 q 583 70 590 78 q 563 63 576 63 q 542 70 549 63 q 535 89 535 78 q 542 107 535 100 q 563 114 549 114 q 583 107 576 114 q 590 89 590 100 m 506 64 l 482 64 l 482 67 q 485 67 482 67 q 489 74 489 68 l 489 86 q 479 81 483 86 l 469 64 l 454 64 l 454 67 q 458 67 454 67 q 465 74 461 68 l 475 88 q 463 100 463 93 q 481 113 463 113 l 506 113 l 506 110 q 502 109 506 110 q 499 101 499 108 l 499 74 q 502 67 499 68 q 506 67 506 67 l 506 64 m 429 64 l 404 64 l 404 67 q 408 67 404 67 q 413 75 413 68 l 413 88 q 407 85 410 88 l 396 74 q 395 67 392 68 q 399 67 399 67 l 399 64 l 375 64 l 375 67 q 378 69 375 67 q 385 74 382 71 l 403 92 l 389 104 q 382 108 386 107 q 378 110 378 110 l 378 113 l 397 113 l 397 110 q 395 108 397 110 q 396 104 393 107 l 407 93 q 413 90 410 90 l 413 103 q 408 109 413 108 q 404 110 404 110 l 404 113 l 429 113 l 429 110 q 425 109 429 110 q 421 103 421 108 l 421 75 q 425 68 421 69 q 429 67 429 67 l 429 64 m 842 -115 q 826 -124 842 -124 l 826 -106 q 842 -115 842 -104 m 729 -114 q 714 -122 729 -124 l 714 -106 q 729 -114 729 -103 m 547 -115 q 532 -124 547 -124 l 532 -106 q 547 -115 547 -104 m 783 -128 l 769 -128 l 776 -111 l 783 -128 m 1111 -122 q 1096 -139 1111 -139 q 1081 -121 1081 -139 q 1096 -104 1081 -104 q 1111 -122 1111 -104 m 613 -122 q 597 -139 613 -139 q 582 -121 582 -139 q 597 -104 582 -104 q 613 -122 613 -104 m 244 761 l 240 788 q 228 794 239 794 q 217 782 217 794 q 222 768 217 775 q 238 761 226 761 l 244 761 m 786 768 q 776 769 783 769 q 771 765 771 769 q 776 763 771 763 q 786 768 782 763 m 378 768 q 368 769 375 769 q 363 765 363 769 q 368 763 363 763 q 378 768 374 763 m 950 743 q 939 781 950 765 q 915 797 928 797 q 900 778 900 797 q 911 741 900 757 q 935 725 922 725 q 950 743 950 725 m 544 533 l 544 564 l 529 564 q 511 549 511 564 q 529 533 511 533 l 544 533 m 389 278 l 385 304 q 372 311 383 311 q 361 299 361 311 q 366 285 361 292 q 382 278 371 278 l 389 278 m 994 260 q 983 298 994 282 q 960 314 972 314 q 944 294 944 314 q 956 258 944 274 q 979 242 967 242 q 994 260 994 242 m 546 253 l 533 301 q 530 309 531 308 q 525 311 529 310 l 517 311 q 497 288 497 311 q 508 257 497 271 q 533 243 518 243 l 540 243 q 546 253 546 243 m 768 110 q 768 97 761 110 q 768 110 774 110 m 489 89 l 489 103 q 483 108 489 108 q 474 100 474 108 q 485 89 474 89 l 489 89 m 579 89 q 563 111 579 111 q 546 89 546 111 q 550 72 546 79 q 563 65 554 65 q 576 72 572 65 q 579 89 579 79 z "},"Ò":{"ha":1181,"x_min":94,"x_max":1086,"o":"m 1086 488 q 1051 680 1086 589 q 950 840 1015 771 q 794 949 885 908 q 592 989 703 989 q 389 948 481 989 q 232 838 297 907 q 131 677 167 768 q 94 485 94 586 q 130 292 94 383 q 231 133 165 201 q 387 24 296 64 q 589 -17 478 -17 q 792 24 700 -17 q 949 135 883 65 q 1050 295 1014 204 q 1086 488 1086 386 m 972 485 q 944 328 972 401 q 865 201 915 256 q 745 116 815 147 q 592 85 675 85 q 438 117 508 85 q 317 203 368 149 q 237 331 265 257 q 208 488 208 404 q 237 644 208 571 q 315 771 265 717 q 435 856 365 825 q 589 888 506 888 q 742 856 672 888 q 864 769 813 824 q 944 642 915 715 q 972 485 972 568 m 540 1058 l 626 1058 l 494 1260 l 383 1208 l 540 1058 z "},"Ú":{"ha":1054,"x_min":122,"x_max":932,"o":"m 932 972 l 822 972 l 822 407 q 743 167 822 247 q 529 86 664 86 q 310 171 389 86 q 232 414 232 256 l 232 972 l 122 972 l 122 407 q 151 225 122 304 q 234 92 181 146 q 362 12 288 39 q 526 -15 436 -15 q 692 12 618 -15 q 820 93 767 39 q 903 228 874 147 q 932 415 932 308 l 932 972 m 563 1051 l 719 1201 l 608 1253 l 476 1051 l 563 1051 z "},"Û":{"ha":1054,"x_min":122,"x_max":932,"o":"m 932 972 l 822 972 l 822 407 q 743 167 822 247 q 529 86 664 86 q 310 171 389 86 q 232 414 232 256 l 232 972 l 122 972 l 122 407 q 151 225 122 304 q 234 92 181 146 q 362 12 288 39 q 526 -15 436 -15 q 692 12 618 -15 q 820 93 767 39 q 903 228 874 147 q 932 415 932 308 l 932 972 m 525 1147 l 629 1054 l 721 1054 l 574 1236 l 479 1236 l 332 1054 l 421 1054 l 525 1147 z "},"Ù":{"ha":1054,"x_min":122,"x_max":932,"o":"m 932 972 l 822 972 l 822 407 q 743 167 822 247 q 529 86 664 86 q 310 171 389 86 q 232 414 232 256 l 232 972 l 122 972 l 122 407 q 151 225 122 304 q 234 92 181 146 q 362 12 288 39 q 526 -15 436 -15 q 692 12 618 -15 q 820 93 767 39 q 903 228 874 147 q 932 415 932 308 l 932 972 m 492 1051 l 578 1051 l 446 1253 l 335 1201 l 492 1051 z "},"ı":{"ha":365,"x_min":129,"x_max":236,"o":"m 236 0 l 236 718 l 129 718 l 129 0 l 236 0 z "},"ˆ":{"ha":694,"x_min":153,"x_max":542,"o":"m 346 919 l 450 826 l 542 826 l 394 1008 l 300 1008 l 153 826 l 242 826 l 346 919 z "},"˜":{"ha":694,"x_min":119,"x_max":575,"o":"m 575 972 l 510 990 q 480 938 494 953 q 438 922 465 922 q 397 931 419 922 q 350 949 375 939 q 300 969 325 960 q 251 978 275 978 q 171 944 201 978 q 119 832 140 911 l 185 814 q 215 867 200 851 q 257 882 229 882 q 297 873 275 882 q 344 853 319 864 q 394 835 369 843 q 443 826 419 826 q 524 860 493 826 q 575 972 554 893 z "},"¯":{"ha":694,"x_min":128,"x_max":567,"o":"m 567 833 l 567 926 l 128 926 l 128 833 l 567 833 z "},"˘":{"ha":694,"x_min":142,"x_max":553,"o":"m 553 1008 l 475 1008 q 431 938 463 964 q 347 913 400 913 q 263 938 294 913 q 219 1008 232 964 l 142 1008 q 204 872 149 921 q 347 824 260 824 q 490 872 435 824 q 553 1008 546 921 z "},"˙":{"ha":694,"x_min":282,"x_max":413,"o":"m 413 826 l 413 960 l 282 960 l 282 826 l 413 826 z "},"˚":{"ha":694,"x_min":203,"x_max":492,"o":"m 492 963 q 480 1017 492 992 q 448 1060 468 1042 q 402 1090 428 1079 q 347 1101 376 1101 q 292 1090 318 1101 q 247 1060 267 1079 q 215 1017 226 1042 q 203 963 203 992 q 215 908 203 933 q 247 865 226 883 q 292 835 267 846 q 347 824 318 824 q 402 835 376 824 q 448 865 428 846 q 480 908 468 883 q 492 963 492 933 m 433 963 q 408 901 433 926 q 347 876 383 876 q 286 901 311 876 q 261 963 261 926 q 286 1024 261 999 q 347 1049 311 1049 q 408 1024 383 1049 q 433 963 433 999 z "},"¸":{"ha":694,"x_min":208,"x_max":418,"o":"m 333 14 l 208 -168 l 313 -215 l 418 14 l 333 14 z "},"˝":{"ha":694,"x_min":117,"x_max":581,"o":"m 429 826 l 581 976 l 476 1028 l 344 826 l 429 826 m 203 826 l 353 976 l 249 1028 l 117 826 l 203 826 z "},"˛":{"ha":694,"x_min":254,"x_max":500,"o":"m 357 14 l 274 14 q 260 -29 265 -6 q 254 -78 254 -53 q 316 -192 254 -149 q 500 -228 378 -235 l 500 -171 q 385 -138 421 -167 q 349 -57 349 -110 q 357 14 349 -22 z "},"ˇ":{"ha":694,"x_min":153,"x_max":542,"o":"m 349 915 l 244 1008 l 153 1008 l 300 826 l 394 826 l 542 1008 l 453 1008 l 349 915 z "},"ł":{"ha":449,"x_min":67,"x_max":383,"o":"m 278 476 l 383 510 l 383 614 l 278 581 l 278 1014 l 172 1014 l 172 549 l 67 517 l 67 413 l 172 446 l 172 0 l 278 0 l 278 476 z "},"Š":{"ha":889,"x_min":74,"x_max":803,"o":"m 222 729 q 237 792 222 763 q 278 842 251 821 q 344 875 306 863 q 429 888 382 888 q 573 863 504 888 q 710 782 642 838 l 774 867 q 619 956 699 926 q 432 986 539 986 q 304 966 363 986 q 203 910 246 946 q 136 826 160 875 q 113 719 113 778 q 132 614 113 658 q 192 536 151 569 q 294 479 232 503 q 439 438 356 456 q 565 403 515 421 q 642 363 614 385 q 681 313 669 340 q 692 251 692 286 q 633 131 692 176 q 475 85 574 85 q 296 119 374 85 q 142 222 218 153 l 74 142 q 258 24 161 63 q 471 -14 354 -14 q 604 6 543 -14 q 709 61 665 25 q 778 149 753 97 q 803 263 803 200 q 726 439 803 375 q 486 539 649 503 q 354 574 406 556 q 274 616 303 593 q 233 667 244 639 q 222 729 222 694 m 451 1147 l 347 1240 l 256 1240 l 403 1058 l 497 1058 l 644 1240 l 556 1240 l 451 1147 z "},"š":{"ha":692,"x_min":60,"x_max":613,"o":"m 613 201 l 613 204 q 592 286 613 253 q 539 343 572 319 q 465 382 506 367 q 382 410 424 397 q 313 432 346 421 q 253 457 279 443 q 213 490 228 471 q 197 533 197 508 l 197 536 q 235 610 197 581 q 336 640 272 640 q 444 622 389 640 q 549 571 499 603 l 597 651 q 474 709 542 688 q 339 731 406 731 q 241 716 286 731 q 163 674 196 701 q 113 609 131 647 q 94 525 94 571 l 94 522 q 116 439 94 472 q 172 383 138 406 q 248 347 206 361 q 332 319 290 332 q 399 299 367 310 q 457 273 432 288 q 497 239 482 258 q 511 193 511 219 l 511 190 q 469 107 511 138 q 363 76 428 76 q 235 100 299 76 q 114 168 172 124 l 60 92 q 200 15 121 43 q 357 -14 279 -14 q 458 1 411 -14 q 538 43 504 15 q 592 110 572 71 q 613 201 613 150 m 351 915 l 247 1008 l 156 1008 l 303 826 l 397 826 l 544 1008 l 456 1008 l 351 915 z "},"Ý":{"ha":994,"x_min":38,"x_max":957,"o":"m 553 386 l 957 972 l 829 972 l 499 486 l 171 972 l 38 972 l 442 385 l 442 0 l 553 0 l 553 386 m 543 1051 l 700 1201 l 589 1253 l 457 1051 l 543 1051 z "},"ý":{"ha":821,"x_min":47,"x_max":771,"o":"m 771 718 l 657 718 l 426 119 l 165 718 l 47 718 l 374 3 q 308 -103 342 -74 q 226 -132 275 -132 q 166 -126 192 -132 q 114 -106 140 -119 l 78 -190 q 150 -217 114 -208 q 231 -226 186 -226 q 367 -181 311 -226 q 469 -24 424 -135 l 771 718 m 457 822 l 614 972 l 503 1024 l 371 822 l 457 822 z "},"Þ":{"ha":935,"x_min":138,"x_max":865,"o":"m 865 496 q 840 626 865 568 q 766 723 814 683 q 651 784 718 763 q 501 806 583 806 l 247 806 l 247 972 l 138 972 l 138 0 l 247 0 l 247 175 l 483 175 q 631 195 561 175 q 752 256 700 215 q 835 357 804 297 q 865 496 865 417 m 754 492 q 735 403 754 443 q 681 335 717 364 q 597 291 646 307 q 488 275 547 275 l 247 275 l 247 704 l 493 704 q 683 651 611 704 q 754 492 754 597 z "},"þ":{"ha":922,"x_min":119,"x_max":844,"o":"m 844 360 q 815 518 844 449 q 738 635 786 588 q 627 708 689 683 q 501 733 565 733 q 410 720 451 733 q 336 685 369 707 q 276 635 303 664 q 226 574 249 606 l 226 1014 l 119 1014 l 119 -222 l 226 -222 l 226 138 q 274 79 247 107 q 335 31 301 51 q 410 -3 368 10 q 501 -15 451 -15 q 628 10 567 -15 q 738 84 690 36 q 815 201 786 132 q 844 360 844 271 m 735 358 q 715 241 735 293 q 660 153 694 189 q 580 99 626 118 q 482 81 533 81 q 385 101 432 81 q 302 157 339 121 q 244 245 265 193 q 222 360 222 297 q 244 474 222 422 q 302 561 265 525 q 385 617 339 597 q 482 638 432 638 q 579 618 533 638 q 660 562 625 599 q 715 474 694 525 q 735 358 735 422 z "},"Ž":{"ha":963,"x_min":93,"x_max":872,"o":"m 722 874 l 93 74 l 93 0 l 872 0 l 872 99 l 242 99 l 872 899 l 872 972 l 114 972 l 114 874 l 722 874 m 489 1147 l 385 1240 l 293 1240 l 440 1058 l 535 1058 l 682 1240 l 593 1240 l 489 1147 z "},"ž":{"ha":772,"x_min":78,"x_max":700,"o":"m 554 628 l 78 68 l 78 0 l 700 0 l 700 90 l 222 90 l 700 650 l 700 718 l 94 718 l 94 628 l 554 628 m 400 915 l 296 1008 l 204 1008 l 351 826 l 446 826 l 593 1008 l 504 1008 l 400 915 z "},"Ł":{"ha":901,"x_min":75,"x_max":836,"o":"m 836 0 l 836 101 l 288 101 l 288 453 l 588 543 l 588 646 l 288 554 l 288 972 l 179 972 l 179 521 l 75 489 l 75 388 l 179 418 l 179 0 l 836 0 z "},"Ω":{"ha":1021,"x_min":61,"x_max":1004,"o":"m 776 715 l 776 774 q 901 926 776 926 q 953 922 929 926 q 1004 908 976 917 l 1004 1001 q 951 1015 979 1011 q 886 1019 924 1019 q 726 958 782 1019 q 671 779 671 897 l 671 717 l 572 717 l 572 624 l 671 624 l 671 0 l 776 0 l 776 624 l 1003 624 l 1003 715 l 776 715 m 265 715 l 265 774 q 390 926 265 926 q 442 922 418 926 q 494 908 465 917 l 494 1001 q 441 1015 468 1011 q 376 1019 414 1019 q 216 958 272 1019 q 160 779 160 897 l 160 717 l 61 717 l 61 624 l 160 624 l 160 0 l 267 0 l 267 624 l 493 624 l 493 715 l 265 715 z "},"∕":{"ha":596,"x_min":-94,"x_max":660,"o":"m 554 1053 l -94 -136 l 11 -136 l 660 1053 l 554 1053 z "},"Ð":{"ha":1128,"x_min":75,"x_max":1033,"o":"m 179 439 l 179 0 l 517 0 q 726 38 631 0 q 890 140 821 75 q 996 295 958 206 q 1033 488 1033 385 q 996 679 1033 590 q 890 833 958 768 q 726 935 821 899 q 517 972 631 972 l 179 972 l 179 539 l 75 539 l 75 439 l 179 439 m 289 539 l 289 871 l 517 871 q 683 841 608 871 q 810 759 758 811 q 891 636 863 707 q 919 485 919 565 q 891 333 919 403 q 810 212 863 264 q 683 131 758 160 q 517 101 608 101 l 289 101 l 289 439 l 581 439 l 581 539 l 289 539 z "},"ð":{"ha":879,"x_min":75,"x_max":803,"o":"m 447 854 l 629 599 q 531 653 583 631 q 404 675 479 675 q 278 651 338 675 q 173 583 218 626 q 101 478 128 539 q 75 342 75 417 q 102 203 75 268 q 177 89 129 138 q 290 12 225 40 q 433 -17 356 -17 q 587 13 518 -17 q 703 93 656 43 q 777 210 751 143 q 803 350 803 276 q 794 442 803 399 q 770 526 786 486 q 732 607 754 567 q 681 689 710 647 l 540 896 l 682 961 l 633 1026 l 496 960 l 460 1014 l 332 1014 l 401 917 l 219 832 l 269 767 l 447 854 m 693 339 q 675 239 693 286 q 624 156 657 192 q 544 99 590 119 q 440 78 497 78 q 337 99 383 78 q 256 157 290 121 q 202 240 221 193 q 183 338 183 286 q 201 437 183 390 q 250 517 218 483 q 327 571 282 551 q 429 590 372 590 q 534 570 486 590 q 617 516 582 550 q 673 436 653 482 q 693 339 693 390 z "}}}
